<svg width="103" height="83" viewBox="0 0 103 83" fill="none" xmlns="http://www.w3.org/2000/svg">
<g style="mix-blend-mode:multiply">
<path d="M21.6265 1.50066H8.23927V25.5358H21.6265V1.50066Z" fill="#99CAFF"/>
</g>
<path d="M21.6267 1.50036H32.7709C50.4025 1.50036 63.6812 11.5085 69.9188 17.7461L101.3 49.1273C99.1377 51.2896 96.0335 52.3988 92.1519 49.9037C86.361 46.1809 72.7932 37.2623 62.212 31.1077C54.4526 26.5947 51.0676 34.2681 51.0676 40.0344C51.0676 40.0344 51.0507 55.6129 51.0507 55.7252C51.0507 62.5448 44.4382 64.8184 41.2541 64.8184V43.25C41.2541 40.4227 29.9433 35.9313 29.9433 25.5358H21.6267" stroke="#111416" stroke-width="3" stroke-linecap="round" stroke-linejoin="round"/>
<path d="M1.50036 1.50066H21.6265V25.5358H1.50036" stroke="#111416" stroke-width="3" stroke-linecap="round" stroke-linejoin="round"/>
<path d="M16.6506 19.5022C16.8597 19.5023 17.0642 19.5643 17.238 19.6805C17.4119 19.7967 17.5475 19.9619 17.6275 20.1551C17.7075 20.3483 17.7285 20.5609 17.6877 20.7661C17.6469 20.9712 17.5462 21.1596 17.3983 21.3075C17.2505 21.4554 17.062 21.5562 16.8569 21.597C16.6518 21.6378 16.4392 21.617 16.2459 21.537C16.0527 21.457 15.8875 21.3215 15.7713 21.1477C15.655 20.9738 15.5929 20.7694 15.5928 20.5602C15.5925 20.4212 15.6197 20.2835 15.6727 20.1551C15.7258 20.0266 15.8037 19.9098 15.902 19.8115C16.0003 19.7132 16.117 19.6353 16.2454 19.5822C16.3739 19.5291 16.5116 19.502 16.6506 19.5022Z" fill="#111416"/>
<path d="M50.5453 60.8823C50.5463 56.806 51.756 52.8215 54.0213 49.4327C56.2867 46.0438 59.506 43.4027 63.2723 41.8433C67.0385 40.284 71.1826 39.8763 75.1805 40.672C79.1784 41.4676 82.8506 43.4308 85.7329 46.3133C88.6152 49.1958 90.578 52.8682 91.3733 56.8662C92.1686 60.8642 91.7606 65.0082 90.2008 68.7743C88.6411 72.5404 85.9998 75.7595 82.6107 78.0246C79.2216 80.2896 75.237 81.499 71.1607 81.4996C68.4532 81.5001 65.7721 80.9671 63.2706 79.9311C60.7691 78.8951 58.4962 77.3764 56.5818 75.4618C54.6673 73.5472 53.1489 71.2742 52.1131 68.7726C51.0773 66.271 50.5446 63.5898 50.5453 60.8823V60.8823Z" stroke="#111416" stroke-width="3" stroke-linejoin="round"/>
<path d="M71.0804 71.6593C69.6521 71.659 68.2823 71.0916 67.2722 70.0817C66.2621 69.0718 65.6944 67.7022 65.6938 66.2739M71.0804 60.8823C69.6517 60.8823 68.2815 60.3147 67.2712 59.3045C66.261 58.2942 65.6934 56.924 65.6934 55.4953C65.6934 54.0666 66.261 52.6964 67.2712 51.6861C68.2815 50.6759 69.6517 50.1083 71.0804 50.1083V60.8823ZM71.0804 50.1083C71.7877 50.1082 72.4882 50.2474 73.1417 50.518C73.7952 50.7886 74.3891 51.1853 74.8892 51.6854C75.3894 52.1855 75.7862 52.7793 76.0569 53.4328C76.3276 54.0863 76.4668 54.7867 76.4668 55.4941L71.0804 50.1083ZM71.0804 60.8823C72.5095 60.8823 73.8801 61.45 74.8907 62.4605C75.9012 63.4711 76.4689 64.8417 76.4689 66.2708C76.4689 67.6999 75.9012 69.0705 74.8907 70.081C73.8801 71.0916 72.5095 71.6593 71.0804 71.6593V60.8823Z" stroke="#111416" stroke-width="3" stroke-linecap="round"/>
<path d="M71.0804 50.1081V47.2506" stroke="#111416" stroke-width="3" stroke-linecap="round"/>
<path d="M71.0804 74.5169V71.6595" stroke="#111416" stroke-width="3" stroke-linecap="round"/>
</svg>
