<svg width="40" height="40" viewBox="0 0 40 40" fill="none" xmlns="http://www.w3.org/2000/svg">
<rect width="40" height="40" fill="white"/>
<rect x="11.6764" y="10.9389" width="15.3345" height="21.1929" rx="0.702" fill="white" stroke="#B02A30" stroke-width="1.404" stroke-linecap="square" stroke-linejoin="round"/>
<path d="M32.5949 25.0662V32.1277" stroke="#B02A30" stroke-width="1.404" stroke-linecap="round"/>
<ellipse cx="32.5949" cy="26.4785" rx="2.09231" ry="3.53077" fill="#F99D27" fill-opacity="0.3" stroke="#B02A30" stroke-width="1.404" stroke-linecap="square" stroke-linejoin="round"/>
<path d="M6.09233 25.0662V32.1277" stroke="#B02A30" stroke-width="1.404" stroke-linecap="round"/>
<ellipse cx="6.09231" cy="26.4785" rx="2.09231" ry="3.53077" fill="#F99D27" fill-opacity="0.3" stroke="#B02A30" stroke-width="1.404" stroke-linecap="square" stroke-linejoin="round"/>
<rect x="14.4662" y="6.702" width="9.75497" height="4.24523" rx="0.702" fill="white" stroke="#B02A30" stroke-width="1.404" stroke-linecap="square" stroke-linejoin="round"/>
<rect x="13.7642" y="13.0615" width="2.78974" height="2.82462" fill="#F99D27" fill-opacity="0.3"/>
<rect x="13.7642" y="17.2985" width="2.78974" height="2.82462" fill="#F99D27" fill-opacity="0.3"/>
<rect x="17.9487" y="13.0615" width="2.78974" height="2.82462" fill="#F99D27" fill-opacity="0.3"/>
<rect x="17.9487" y="17.2985" width="2.78974" height="2.82462" fill="#F99D27" fill-opacity="0.3"/>
<rect x="22.1333" y="13.0615" width="2.78974" height="2.82462" fill="#F99D27" fill-opacity="0.3"/>
<rect x="22.1333" y="17.2985" width="2.78974" height="2.82462" fill="#F99D27" fill-opacity="0.3"/>
<rect x="13.7642" y="21.5354" width="2.78974" height="2.82462" fill="#F99D27" fill-opacity="0.3"/>
<rect x="17.9487" y="21.5354" width="2.78974" height="2.82462" fill="#F99D27" fill-opacity="0.3"/>
<rect x="22.1333" y="21.5354" width="2.78974" height="2.82462" fill="#F99D27" fill-opacity="0.3"/>
<rect x="17.9487" y="27.1846" width="2.78974" height="4.23692" fill="#B02A30"/>
</svg>
