<svg width="21" height="30" viewBox="0 0 21 30" fill="none" xmlns="http://www.w3.org/2000/svg">
<path d="M6.69168 23.557H14.3083V26.8212C14.3083 28.0231 13.334 28.9974 12.1321 28.9974H8.86785C7.66598 28.9974 6.69168 28.0231 6.69168 26.8212V23.557Z" fill="white" stroke="#B02A30" stroke-width="1.404" stroke-linecap="square" stroke-linejoin="round"/>
<ellipse cx="10.5" cy="11.2117" rx="9.79275" ry="10.5044" fill="white" stroke="#B02A30" stroke-width="1.404" stroke-linecap="square" stroke-linejoin="round"/>
<path fill-rule="evenodd" clip-rule="evenodd" d="M11.8511 9.5898L13.2592 4.33477L8.13489 10.847L10.2369 11.4102L8.82882 16.6652L13.9532 10.153L11.8511 9.5898Z" fill="white"/>
<path d="M13.2592 4.33477L13.9424 4.51782C14.0293 4.19347 13.8762 3.85272 13.5759 3.70237C13.2756 3.55202 12.9111 3.63352 12.7034 3.89741L13.2592 4.33477ZM11.8511 9.5898L11.168 9.40675C11.1194 9.58794 11.1449 9.78099 11.2386 9.94343C11.3324 10.1059 11.4869 10.2244 11.6681 10.273L11.8511 9.5898ZM8.13489 10.847L7.57908 10.4096C7.43206 10.5964 7.38875 10.8446 7.4638 11.0702C7.53884 11.2958 7.7222 11.4686 7.95184 11.5301L8.13489 10.847ZM10.2369 11.4102L10.9201 11.5933C11.0212 11.216 10.7973 10.8281 10.42 10.727L10.2369 11.4102ZM8.82882 16.6652L8.14567 16.4822C8.05876 16.8065 8.2119 17.1473 8.51215 17.2976C8.8124 17.448 9.17698 17.3665 9.38463 17.1026L8.82882 16.6652ZM13.9532 10.153L14.509 10.5904C14.656 10.4036 14.6993 10.1554 14.6243 9.92978C14.5492 9.7042 14.3658 9.53141 14.1362 9.46988L13.9532 10.153ZM12.5761 4.15171L11.168 9.40675L12.5343 9.77285L13.9424 4.51782L12.5761 4.15171ZM8.6907 11.2843L13.815 4.77212L12.7034 3.89741L7.57908 10.4096L8.6907 11.2843ZM10.42 10.727L8.31794 10.1638L7.95184 11.5301L10.0539 12.0934L10.42 10.727ZM9.51198 16.8483L10.9201 11.5933L9.55375 11.2272L8.14567 16.4822L9.51198 16.8483ZM13.3973 9.71568L8.27301 16.2279L9.38463 17.1026L14.509 10.5904L13.3973 9.71568ZM11.6681 10.273L13.7701 10.8362L14.1362 9.46988L12.0342 8.90665L11.6681 10.273Z" fill="#F99D27" fill-opacity="0.3"/>
<path d="M5.66857 4.57039C5.66857 4.57039 2.93993 7.23576 2.93993 10.6772C2.93993 11.2173 2.98913 11.7316 3.08753 12.22" stroke="#F99D27" stroke-opacity="0.3" stroke-width="1.404" stroke-linecap="round" stroke-linejoin="round"/>
<path d="M3.68263 13.9215C4.12518 14.772 5.60366 16.1612 5.60366 16.1612" stroke="#F99D27" stroke-opacity="0.3" stroke-width="1.404" stroke-linecap="round" stroke-linejoin="round"/>
<path d="M7.81721 18.9572L8.13496 19.7487" stroke="#F99D27" stroke-opacity="0.3" stroke-width="1.404" stroke-linecap="round" stroke-linejoin="round"/>
<path d="M6.69176 26.2772L14.3083 24.101" stroke="#B02A30" stroke-width="1.404" stroke-linecap="round" stroke-linejoin="round"/>
<path d="M7.31115 28.2946L14.3084 26.2772" stroke="#B02A30" stroke-width="1.404" stroke-linecap="round" stroke-linejoin="round"/>
</svg>
