<svg width="13" height="12" viewBox="0 0 13 12" fill="none" xmlns="http://www.w3.org/2000/svg">
<path fill-rule="evenodd" clip-rule="evenodd" d="M5.33735 0.666869C5.33735 0.300091 5.63744 0 6.00422 0C6.37099 0 6.67109 0.300091 6.67109 0.666869V6.00182C6.67109 6.3686 6.37099 6.66869 6.00422 6.66869C5.63744 6.66869 5.33735 6.3686 5.33735 6.00182V0.666869ZM9.42525 2.83419C9.17851 2.57411 9.17184 2.16732 9.43192 1.90725C9.69867 1.6405 10.1388 1.64717 10.3922 1.92058C11.3925 2.98757 12.006 4.41467 12.006 5.99515C12.006 9.37618 9.21186 12.1037 5.81082 11.997C2.5565 11.8969 -0.0909659 9.08276 0.0023958 5.82843C0.0490766 4.31464 0.655927 2.94756 1.62289 1.92058C1.8763 1.64717 2.30976 1.6405 2.57651 1.90725C2.82992 2.16066 2.82992 2.56745 2.58318 2.82752C1.80961 3.66111 1.33613 4.77478 1.33613 6.00182C1.33613 8.60261 3.45678 10.7032 6.06423 10.6632C8.61834 10.6366 10.7323 8.43589 10.6723 5.88178C10.6456 4.70143 10.1788 3.63444 9.42525 2.83419Z" fill="#B02A30"/>
</svg>
