<svg width="19" height="17" viewBox="0 0 19 17" fill="none" xmlns="http://www.w3.org/2000/svg">
<path d="M19 8.46882C19 8.86374 18.6928 9.1709 18.3418 9.1709H2.36952L8.2933 15.7529C8.55658 16.0162 8.55658 16.455 8.24942 16.7182C8.11778 16.8499 7.94226 16.8938 7.81062 16.8938C7.59122 16.8938 7.4157 16.8499 7.28406 16.6744L0.263279 8.9515C0 8.68822 0 8.2933 0.263279 8.03002L7.28406 0.307159C7.54734 0 7.98614 0 8.24942 0.263279C8.55658 0.526559 8.55658 0.965358 8.2933 1.22864L2.36952 7.76674H18.3418C18.6928 7.76674 19 8.11778 19 8.46882Z" fill="#3A3A3D"/>
</svg>
