<svg width="28" height="29" viewBox="0 0 28 29" fill="none" xmlns="http://www.w3.org/2000/svg">
<path d="M3.11165 12.5339C3.11165 12.5339 3.20156 10.1669 3.18034 9.05565C3.15913 7.9444 1.14474 7.69588 0.84167 9.05565C0.78558 9.37364 0.754505 9.69554 0.74873 10.0184C0.55857 12.0718 0.55857 14.1384 0.74873 16.1919C1.22706 18.022 2.10281 19.7241 3.31369 21.1773C4.90783 23.3412 6.54641 24.3818 6.87372 25.1021C7.20104 25.8223 6.79796 27.9044 7.05051 28.1752C8.91866 28.4654 10.8204 28.4654 12.6886 28.1752C13.0422 27.866 12.4643 21.8107 12.2289 21.4521C10.3273 19.24 8.28003 17.1574 6.1009 15.218C4.41383 13.9229 3.79355 15.1776 4.34715 15.8787C4.90075 16.5798 8.05468 20.6753 7.74555 20.2934C7.43642 19.9115 3.11266 14.3523 3.11266 14.3523C3.06471 12.2361 3.13216 10.1189 3.3147 8.01006C3.59453 6.0674 5.51093 6.34319 5.5372 8.18685C5.56346 10.0305 5.5372 14.5755 5.5372 14.5755C5.5372 14.5755 5.63822 12.0237 5.63822 10.7771C5.62809 10.2467 6.00367 9.78701 6.52545 9.69123C7.04723 9.59545 7.56158 9.89175 7.7405 10.3912C8.08801 11.5317 7.88597 16.799 7.88597 16.799L7.96881 13.5663C7.96881 13.5663 9.93874 12.3924 10.0084 14.8796C10.0782 17.3668 10.0084 19.0215 10.0084 19.0215" stroke="#B02A30" stroke-width="1.2" stroke-linecap="round"/>
<path d="M11.0622 27.0466C11.0865 26.3417 11.0734 25.636 11.023 24.9325C10.963 24.2548 10.864 23.581 10.7264 22.9147" stroke="#F99D27" stroke-opacity="0.3" stroke-width="0.999978" stroke-linecap="round"/>
<path d="M24.4294 12.5339C24.4294 12.5339 24.3395 10.1669 24.3607 9.05667C24.3819 7.94643 26.3963 7.69691 26.6994 9.05667C26.7555 9.37466 26.7865 9.69656 26.7923 10.0194C26.9825 12.0728 26.9825 14.1395 26.7923 16.1929C26.314 18.023 25.4382 19.7252 24.2274 21.1784C22.6332 23.3423 20.9946 24.3828 20.6673 25.1031C20.34 25.8234 20.7431 27.9054 20.4905 28.1762C18.6224 28.4664 16.7206 28.4664 14.8525 28.1762C14.4989 27.8671 15.0767 21.8118 15.3121 21.4531C17.2138 19.2411 19.261 17.1584 21.4401 15.219C23.1272 13.9239 23.7475 15.1786 23.1939 15.8797C22.6403 16.5808 19.4874 20.6763 19.7955 20.2944C20.1036 19.9125 24.4284 14.3533 24.4284 14.3533C24.4763 12.2375 24.4088 10.1206 24.2263 8.0121C23.9465 6.06944 22.0301 6.34523 22.0038 8.18889C21.9776 10.0325 22.0038 14.5765 22.0038 14.5765C22.0038 14.5765 21.9028 12.0247 21.9028 10.7781C21.913 10.2477 21.5374 9.78804 21.0156 9.69226C20.4938 9.59648 19.9795 9.89277 19.8005 10.3922C19.453 11.5327 19.6551 16.8 19.6551 16.8L19.5722 13.5673C19.5722 13.5673 17.6023 12.3934 17.5326 14.8806C17.4629 17.3678 17.5326 19.0225 17.5326 19.0225" stroke="#B02A30" stroke-width="1.2" stroke-linecap="round"/>
<path d="M16.4507 27.0629C16.4263 26.358 16.4394 25.6523 16.4899 24.9487C16.5499 24.271 16.6489 23.5972 16.7865 22.9309" stroke="#F99D27" stroke-opacity="0.3" stroke-linecap="round"/>
<circle cx="13.9019" cy="5.69867" r="5.64817" fill="white"/>
<circle cx="13.9018" cy="5.69867" r="5.04203" stroke="#B02A30" stroke-width="1.3"/>
<path d="M12.2239 2.59627C11.9533 2.59627 11.734 2.81563 11.734 3.08623C11.734 3.35683 11.9533 3.57619 12.2239 3.57619V2.59627ZM15.8456 3.57619C16.1162 3.57619 16.3356 3.35683 16.3356 3.08623C16.3356 2.81563 16.1162 2.59627 15.8456 2.59627V3.57619ZM12.2239 4.21364C11.9533 4.21364 11.734 4.433 11.734 4.7036C11.734 4.9742 11.9533 5.19356 12.2239 5.19356V4.21364ZM15.8456 5.19356C16.1162 5.19356 16.3356 4.9742 16.3356 4.7036C16.3356 4.433 16.1162 4.21364 15.8456 4.21364V5.19356ZM12.2239 3.57619H15.8456V2.59627H12.2239V3.57619ZM12.2239 5.19356H15.8456V4.21364H12.2239V5.19356Z" fill="#F99D27" fill-opacity="0.3"/>
<path d="M12.3401 3.08117C14.1538 3.16536 15.061 3.70415 15.0617 4.69753C15.0623 5.69092 14.1551 6.25496 12.3401 6.38966L15.6567 8.41011" stroke="#F99D27" stroke-opacity="0.3" stroke-width="0.97" stroke-linecap="round" stroke-linejoin="round"/>
</svg>
