<svg width="25" height="22" viewBox="0 0 25 22" fill="none" xmlns="http://www.w3.org/2000/svg">
<path d="M18.7344 10.6562C18.1328 10.6562 17.7031 11.1289 17.7031 11.6875C17.7031 12.2891 18.1328 12.7188 18.7344 12.7188C19.293 12.7188 19.7656 12.2891 19.7656 11.6875C19.7656 11.1289 19.293 10.6562 18.7344 10.6562ZM23.5469 9.625H22.9453C22.4727 8.55078 21.6992 7.64844 20.7969 6.91797V4.125L20.0664 4.16797C18.0469 4.16797 16.457 5.32812 16.1992 5.5H9.75391C7.94922 5.5 6.1875 6.23047 4.94141 7.43359C3.95312 8.37891 3.26562 9.625 3.00781 11H2.53516C1.93359 11 1.41797 10.4414 1.54688 9.79688C1.63281 9.41016 1.89062 9.06641 2.36328 8.98047C2.66406 8.9375 2.87891 8.63672 2.87891 8.33594C2.87891 7.86328 2.49219 7.5625 2.0625 7.64844C1.07422 7.86328 0.300781 8.63672 0.171875 9.66797C0 11.1289 1.11719 12.375 2.53516 12.375H2.87891C2.87891 14.6523 3.99609 16.6289 5.62891 17.875V19.9375C5.62891 21.0977 6.57422 22 7.69141 22H9.75391C10.8711 22 11.7734 21.0977 11.7734 19.9805V19.25H14.5234V19.9375C14.5664 21.0977 15.5117 22 16.6289 22H18.6914C19.8086 22 20.7539 21.0977 20.7539 19.9805V17.918C21.2266 17.5312 21.6992 17.0586 22.0859 16.543H23.5039C24.2344 16.543 24.8789 15.9414 24.8789 15.168V11C24.9219 10.2695 24.2773 9.625 23.5469 9.625ZM23.5039 15.125H21.3984C20.668 16.1133 20.668 16.1992 19.3789 17.1875V19.9375C19.3789 20.3242 19.0352 20.625 18.6914 20.625H16.6289C16.2422 20.625 15.9414 20.3242 15.9414 19.9375V17.875H10.4414V19.9375C10.4414 20.3242 10.0977 20.625 9.75391 20.625H7.69141C7.30469 20.625 7.00391 20.3242 7.00391 19.9375V17.1875C4.25391 15.082 4.25391 13.1484 4.25391 12.375C4.25391 9.36719 6.74609 6.875 9.75391 6.875H16.6719C17.4023 6.31641 18.1328 5.75781 19.3789 5.58594V7.60547C21.0977 8.89453 21.2695 9.28125 22.043 11H23.5039V15.125ZM7.60547 4.8125C7.64844 4.8125 7.69141 4.8125 7.73438 4.8125C8.07812 4.8125 8.37891 4.59766 8.42188 4.25391C8.72266 2.57812 10.1836 1.375 11.9453 1.375C13.4492 1.375 14.7812 2.32031 15.2969 3.69531C15.3828 4.03906 15.8125 4.25391 16.1562 4.125C16.543 3.99609 16.7578 3.60938 16.6289 3.26562C15.9414 1.33203 14.0508 0 11.9453 0C9.49609 0 7.43359 1.71875 7.04688 4.03906C6.96094 4.42578 7.21875 4.76953 7.60547 4.8125Z" fill="#4AD962"/>
</svg>
