<svg width="28" height="26" viewBox="0 0 28 26" fill="none" xmlns="http://www.w3.org/2000/svg">
<path fill-rule="evenodd" clip-rule="evenodd" d="M21.6301 13.1494H23.9212C26.1705 13.1494 27.9949 14.9698 28 17.2191V19.8168C28 20.8987 27.5701 21.9367 26.8051 22.7018C26.0401 23.4658 25.003 23.8957 23.9212 23.8957H23.0522C22.715 24.9287 21.7523 25.6275 20.6654 25.6275C19.5794 25.6275 18.6168 24.9287 18.2796 23.8957H9.72045C9.38326 24.9287 8.42059 25.6275 7.33465 25.6275C6.2477 25.6275 5.28502 24.9287 4.94783 23.8957H4.07888C1.82653 23.8957 0 22.0702 0 19.8168V17.2283C0 14.9759 1.82653 13.1494 4.07888 13.1494H20.0613V8.15776C20.0613 7.72481 20.4127 7.37336 20.8457 7.37336C21.2786 7.37336 21.6301 7.72481 21.6301 8.15776V13.1494ZM23.9212 22.2484C25.2689 22.2474 26.3609 21.1554 26.362 19.8076V17.2191C26.3609 15.8714 25.2689 14.7793 23.9212 14.7783H4.07888C2.73114 14.7793 1.63909 15.8714 1.63807 17.2191V19.8076C1.63909 21.1554 2.73114 22.2474 4.07888 22.2484H23.9212Z" fill="#B02A30"/>
<path d="M15.0788 3.64593C16.6089 2.11584 18.684 1.25606 20.8477 1.25606C23.0104 1.25606 25.0855 2.11584 26.6156 3.64593C26.8601 3.89042 27.2584 3.89042 27.5039 3.64593C27.7484 3.40145 27.7484 3.00313 27.5039 2.75763C25.7385 0.992216 23.3436 0 20.8477 0C18.3509 0 15.9559 0.992216 14.1905 2.75763C13.946 3.00313 13.946 3.40043 14.1905 3.64593C14.436 3.89042 14.8333 3.89042 15.0788 3.64593Z" fill="#F99D27" fill-opacity="0.3"/>
<path d="M25.5053 5.41236C25.7701 5.41134 26.0095 5.25039 26.1114 5.00488C26.2133 4.76039 26.1562 4.47719 25.9688 4.28873C24.6098 2.92979 22.767 2.16576 20.8447 2.16576C18.9214 2.16576 17.0786 2.92979 15.7186 4.28873C15.4588 4.54952 15.4588 4.97126 15.7186 5.23001C15.9784 5.4908 16.4011 5.4908 16.6599 5.23001C17.7723 4.11861 19.281 3.49313 20.8539 3.49313C22.4267 3.49313 23.9344 4.11861 25.0468 5.23001C25.1701 5.34818 25.3341 5.41338 25.5053 5.41236Z" fill="#F99D27" fill-opacity="0.3"/>
<path d="M17.5166 6.08369C17.2721 6.32818 17.2721 6.72649 17.5166 6.972C17.7611 7.21649 18.1594 7.21649 18.4049 6.972C19.0518 6.32411 19.9299 5.96043 20.8457 5.96043C21.7615 5.96043 22.6386 6.32411 23.2865 6.972C23.531 7.21649 23.9293 7.21649 24.1748 6.972C24.4193 6.72751 24.4193 6.3292 24.1748 6.08369C23.2916 5.20048 22.0946 4.70437 20.8457 4.70437C19.5968 4.70437 18.3998 5.20048 17.5166 6.08369Z" fill="#F99D27" fill-opacity="0.3"/>
<path fill-rule="evenodd" clip-rule="evenodd" d="M16.1801 18.682C16.1801 19.2392 15.7268 19.7078 15.1614 19.7078C14.596 19.7078 14.1427 19.2392 14.1427 18.682C14.1427 18.1227 14.596 17.6704 15.1614 17.6704C15.7268 17.6704 16.1801 18.1227 16.1801 18.682ZM18.2175 19.7078C18.7829 19.7078 19.2362 19.2392 19.2362 18.682C19.2362 18.1227 18.7829 17.6704 18.2175 17.6704C17.6521 17.6704 17.1988 18.1227 17.1988 18.682C17.1988 19.2392 17.6521 19.7078 18.2175 19.7078ZM21.2777 19.7078C21.8431 19.7078 22.2964 19.2392 22.2964 18.682C22.2964 18.1227 21.8431 17.6704 21.2777 17.6704C20.7123 17.6704 20.259 18.1227 20.259 18.682C20.259 19.2402 20.7123 19.7078 21.2777 19.7078Z" fill="#F99D27" fill-opacity="0.3"/>
</svg>
