<svg width="40" height="40" viewBox="0 0 40 40" fill="none" xmlns="http://www.w3.org/2000/svg">
<rect width="40" height="40" fill="white"/>
<path d="M27.2703 16.9484L24.8147 13.3104C24.2941 12.5392 23.4244 12.0769 22.4939 12.0769L12.105 12.0769C9.19774 12.0769 6.84094 14.4337 6.84094 17.341V17.341" stroke="#B02A30" stroke-width="1.4" stroke-linecap="round"/>
<path d="M10.8222 14.1538C10.8222 14.1538 10.0605 14.6611 9.81505 14.9167C9.56962 15.1723 9.35718 15.6795 9.35718 15.6795" stroke="#F99D27" stroke-opacity="0.3" stroke-width="1.4" stroke-linecap="round"/>
<path d="M19.8036 14.1538V15.6795" stroke="#F99D27" stroke-opacity="0.3" stroke-width="1.4" stroke-linecap="round"/>
<path d="M17.018 12.0769V17.8496" stroke="#B02A30" stroke-width="1.4" stroke-linecap="round"/>
<path fill-rule="evenodd" clip-rule="evenodd" d="M37.5229 24.5385C37.5229 24.5385 38.722 24.5471 38.722 24.2962C38.722 23.9613 37.6465 23.9851 37.5229 23.6229C37.1797 22.617 37.5229 21.2 37.5229 20.5607C37.5229 18.9977 36.1811 19.364 36.1811 18.4857C36.1811 17.6074 34.5956 17.5095 34.5956 17.5095H7.2679C7.2679 17.5095 4.31152 17.4892 3.29341 19.0368C2.69129 19.9521 2.93557 22.3399 2.94037 23.6229C2.9437 24.5092 0.487118 24.5385 2.64381 24.5385C2.64381 24.5385 3.01148 24.5385 3.74682 24.5385C4.51708 24.5385 7.2679 24.5385 7.2679 24.5385H37.5229Z" fill="white" stroke="#B02A30" stroke-width="1.4" stroke-linecap="square"/>
<path d="M13.5358 19.6923C13.5358 19.6923 14.39 20.2007 14.7772 20.6107C15.1644 21.0208 15.4995 22.0959 15.4995 22.0959" stroke="#F99D27" stroke-opacity="0.3" stroke-width="1.4" stroke-linecap="round"/>
<path d="M33.4567 19.6445C33.4567 19.6445 34.3109 20.1529 34.6981 20.5629" stroke="#F99D27" stroke-opacity="0.3" stroke-width="1.4" stroke-linecap="round"/>
<path d="M19.8036 10.7098V11.4196" stroke="#B02A30" stroke-width="1.4" stroke-linecap="round"/>
<ellipse cx="10.0537" cy="24.5385" rx="3.48214" ry="3.46154" fill="white" stroke="#B02A30" stroke-width="1.4"/>
<ellipse cx="30.9465" cy="24.5385" rx="3.48214" ry="3.46154" fill="white" stroke="#B02A30" stroke-width="1.4"/>
</svg>
