<svg width="26" height="26" viewBox="0 0 26 26" fill="none" xmlns="http://www.w3.org/2000/svg">
<path fill-rule="evenodd" clip-rule="evenodd" d="M14.7811 5.53916H22.6087C24.4787 5.53916 26 7.06148 26 8.93047V22.2696C26 24.1406 24.4787 25.6609 22.6087 25.6609H3.3913C1.52131 25.6609 0 24.1406 0 22.2696V8.93047C0 7.06047 1.52131 5.53916 3.3913 5.53916H8.69882L6.52638 0.970195C6.3656 0.631567 6.50929 0.22662 6.84792 0.0658473C7.18655 -0.0949257 7.5915 0.0487651 7.75227 0.387393L10.1689 5.47385C10.1769 5.48982 10.1817 5.5058 10.1864 5.52139C10.1883 5.52738 10.19 5.53331 10.192 5.53916H13.2859C13.2887 5.53182 13.2912 5.52423 13.2938 5.51661C13.2986 5.50234 13.3034 5.48796 13.31 5.47485L15.7266 0.387393C15.8874 0.0487651 16.2923 -0.0949257 16.631 0.0658473C16.9696 0.22662 17.1133 0.631567 16.9525 0.970195L14.7811 5.53916ZM22.6087 24.3044C23.7301 24.3044 24.6435 23.392 24.6435 22.2696V8.93047C24.6435 7.80807 23.7301 6.89568 22.6087 6.89568H3.3913C2.26991 6.89568 1.35652 7.80807 1.35652 8.93047V22.2696C1.35652 23.392 2.26991 24.3044 3.3913 24.3044H22.6087Z" fill="#B02A30"/>
<path fill-rule="evenodd" clip-rule="evenodd" d="M6.42594 9.38263H17.052C18.4236 9.38263 19.539 10.498 19.539 11.8696V19.3305C19.539 20.7021 18.4236 21.8174 17.052 21.8174H6.42594C5.05434 21.8174 3.93898 20.7021 3.93898 19.3305V11.8696C3.93898 10.498 5.05535 9.38263 6.42594 9.38263ZM17.052 20.4609C17.676 20.4609 18.1825 19.9535 18.1825 19.3305V11.8696C18.1825 11.2466 17.676 10.7392 17.052 10.7392H6.42594C5.80294 10.7392 5.2955 11.2466 5.2955 11.8696V19.3305C5.2955 19.9535 5.80294 20.4609 6.42594 20.4609H17.052Z" fill="#B02A30"/>
<path fill-rule="evenodd" clip-rule="evenodd" d="M20.8754 15.1484C20.8754 14.3174 21.5516 13.6411 22.3826 13.6411C23.2146 13.6411 23.8899 14.3174 23.8899 15.1484C23.8899 15.9794 23.2136 16.6556 22.3826 16.6556C21.5516 16.6556 20.8754 15.9794 20.8754 15.1484ZM21.9727 15.1484C21.9727 15.3755 22.1565 15.5583 22.3826 15.5583C22.6087 15.5583 22.7926 15.3755 22.7926 15.1484C22.7926 14.9223 22.6087 14.7384 22.3826 14.7384C22.1565 14.7384 21.9727 14.9223 21.9727 15.1484ZM22.3826 17.6604C21.5516 17.6604 20.8754 18.3367 20.8754 19.1677C20.8754 19.9987 21.5516 20.6749 22.3826 20.6749C23.2136 20.6749 23.8899 19.9987 23.8899 19.1677C23.8899 18.3367 23.2146 17.6604 22.3826 17.6604ZM21.9727 19.1677C21.9727 19.3948 22.1565 19.5777 22.3826 19.5777C22.6087 19.5777 22.7926 19.3948 22.7926 19.1677C22.7926 18.9416 22.6087 18.7577 22.3826 18.7577C22.1565 18.7577 21.9727 18.9416 21.9727 19.1677Z" fill="#F99D27" fill-opacity="0.3"/>
</svg>
