<svg width="28" height="24" viewBox="0 0 28 24" fill="none" xmlns="http://www.w3.org/2000/svg">
<path d="M13.7935 7.2692C13.9231 7.33399 14.0526 7.33399 14.1822 7.3016C14.3118 7.2692 14.409 7.17202 14.4737 7.07484C14.6033 6.84809 14.5061 6.52416 14.2794 6.39459C14.2146 6.36219 14.1174 6.3298 14.0526 6.3298C13.8907 6.3298 13.6963 6.42698 13.5991 6.58894C13.5343 6.71852 13.5343 6.84809 13.5667 6.97766C13.5667 7.10724 13.6639 7.20442 13.7935 7.2692Z" fill="black"/>
<path fill-rule="evenodd" clip-rule="evenodd" d="M19.5595 9.79588C21.2116 6.75091 20.0454 2.9285 17.0004 1.30883C13.9555 -0.343226 10.1331 0.822934 8.51339 3.8679C6.86133 6.91288 8.02749 10.7353 11.0725 12.355C11.4288 12.5493 11.7851 12.6789 12.1414 12.8085V13.5535H11.4288C11.1372 13.5535 10.8781 13.8126 10.8781 14.1042V15.0436H9.22604V20.1941H19.1384V15.076H17.13V14.1366C17.13 13.845 16.8709 13.5859 16.5793 13.5859H15.8991V12.8085C17.4215 12.3226 18.7497 11.3184 19.5595 9.79588Z" stroke="#B02A30" stroke-width="1.1"/>
<path fill-rule="evenodd" clip-rule="evenodd" d="M13.4696 2.76652V5.35799C13.1133 5.48756 12.7893 5.74671 12.6274 6.10304C12.433 6.45936 12.3682 6.88047 12.4978 7.30159C12.6274 7.69031 12.8865 8.04663 13.2752 8.24099C13.502 8.37057 13.7611 8.43535 14.0203 8.43535C14.1586 8.43535 14.2733 8.41172 14.4048 8.38464L14.4738 8.37057C14.8625 8.24099 15.2188 7.98185 15.4132 7.59313C15.8343 6.84808 15.5428 5.87628 14.7653 5.45517L14.571 5.35799V2.76652C14.571 2.47498 14.3118 2.21584 14.0203 2.21584C13.7288 2.21584 13.4696 2.47498 13.4696 2.76652ZM15.9963 2.66934C16.2878 2.66934 16.547 2.92849 16.547 3.22003C16.547 3.51157 16.2878 3.77072 15.9963 3.77072C15.7047 3.77072 15.4456 3.51157 15.4456 3.22003C15.4456 2.92849 15.7047 2.66934 15.9963 2.66934ZM17.5512 4.15944C17.8427 4.15944 18.1019 4.41858 18.1019 4.71012C18.1019 5.00166 17.8427 5.26081 17.5512 5.26081C17.2596 5.26081 17.0005 5.00166 17.0005 4.71012C17.0005 4.41858 17.2272 4.15944 17.5512 4.15944ZM18.1342 7.30159C18.4258 7.30159 18.6849 7.04244 18.6849 6.7509C18.6849 6.45936 18.4258 6.20022 18.1342 6.20022C17.8427 6.20022 17.5836 6.45936 17.5836 6.7509C17.5836 7.04244 17.8427 7.30159 18.1342 7.30159ZM17.0653 8.82407C17.0653 9.11561 17.3244 9.37476 17.616 9.37476C17.9399 9.37476 18.1666 9.14801 18.1666 8.82407C18.1666 8.53253 17.9075 8.27339 17.616 8.27339C17.3244 8.27339 17.0653 8.53253 17.0653 8.82407ZM9.90634 6.32979C9.6148 6.32979 9.35566 6.58893 9.35566 6.88047C9.35566 7.20441 9.6148 7.43116 9.90634 7.43116C10.1979 7.43116 10.457 7.17201 10.457 6.88047C10.457 6.58893 10.1979 6.32979 9.90634 6.32979ZM10.457 9.47194C10.1655 9.47194 9.90634 9.21279 9.90634 8.92125C9.90634 8.62971 10.1655 8.37057 10.457 8.37057C10.7486 8.37057 11.0077 8.62971 11.0077 8.92125C11.0077 9.21279 10.7486 9.47194 10.457 9.47194ZM9.90634 4.77491C9.90634 5.06645 10.1655 5.3256 10.457 5.3256C10.7486 5.3256 11.0077 5.09884 11.0077 4.77491C11.0077 4.48337 10.7486 4.22422 10.457 4.22422C10.1655 4.22422 9.90634 4.48337 9.90634 4.77491ZM13.5344 10.962C13.5344 10.6705 13.7935 10.4113 14.0851 10.4113C14.3766 10.4113 14.6358 10.6705 14.6358 10.962C14.6358 11.2536 14.3766 11.5127 14.0851 11.5127C13.7935 11.5127 13.5344 11.2536 13.5344 10.962ZM15.5752 10.379C15.5752 10.6705 15.8343 10.9296 16.1259 10.9296C16.4498 10.9296 16.6765 10.6705 16.6765 10.379C16.6765 10.0874 16.4174 9.82827 16.1259 9.82827C15.8343 9.82827 15.5752 10.0874 15.5752 10.379ZM11.9795 2.73413C12.2711 2.73413 12.5302 2.99328 12.5302 3.28482C12.5302 3.57636 12.2711 3.8355 11.9795 3.8355C11.688 3.8355 11.4288 3.57636 11.4288 3.28482C11.4288 2.96088 11.688 2.73413 11.9795 2.73413ZM12.0119 9.89305C11.7204 9.89305 11.4612 10.1522 11.4612 10.4437C11.4612 10.7353 11.7204 10.962 12.0119 10.9944C12.3034 10.9944 12.5626 10.7353 12.5626 10.4437C12.5626 10.1522 12.3034 9.89305 12.0119 9.89305Z" fill="#F99D27" fill-opacity="0.3"/>
<path d="M20.8026 15.1084L20.8604 14.5546L20.2459 14.4905V15.1084H20.8026ZM20.8026 20.3561H20.2459V20.7436L20.6093 20.8782L20.8026 20.3561ZM7.52137 20.2589L7.62097 20.8067L8.07813 20.7236V20.2589H7.52137ZM7.52137 15.1084H8.07813V14.5182L7.48895 14.5526L7.52137 15.1084ZM1.1075 23.2391V23.7959L1.11199 23.7958L1.1075 23.2391ZM5.12427 23.2067L5.12876 23.7635L5.14357 23.7633L5.15836 23.7624L5.12427 23.2067ZM22.8434 23.7635H26.8926V22.6499H22.8434V23.7635ZM26.8926 23.7635C27.4916 23.7635 28 23.2551 28 22.656H26.8865C26.8865 22.6459 26.8888 22.6404 26.8889 22.64C26.889 22.6399 26.8887 22.6406 26.8877 22.6421C26.8867 22.6435 26.8853 22.6453 26.8836 22.647C26.8818 22.6488 26.8801 22.6501 26.8786 22.6512C26.8772 22.6521 26.8764 22.6525 26.8766 22.6524C26.877 22.6522 26.8825 22.6499 26.8926 22.6499V23.7635ZM28 22.656V22.4941H26.8865V22.656H28ZM28 22.4941C28 18.3844 24.8671 14.9727 20.8604 14.5546L20.7448 15.6621C24.1886 16.0215 26.8865 18.9589 26.8865 22.4941H28ZM20.2459 15.1084V20.3561H21.3594V15.1084H20.2459ZM20.6093 20.8782C21.2715 21.1235 21.736 21.7615 21.736 22.4941H22.8495C22.8495 21.283 22.083 20.2366 20.996 19.834L20.6093 20.8782ZM21.736 22.4941V22.656H22.8495V22.4941H21.736ZM21.736 22.656C21.736 23.2334 22.1908 23.7635 22.8434 23.7635V22.6499C22.8402 22.6499 22.8388 22.6496 22.839 22.6497C22.8391 22.6497 22.84 22.6499 22.8414 22.6505C22.8444 22.6518 22.8468 22.6537 22.8482 22.6551C22.8502 22.6572 22.8495 22.6575 22.8495 22.656H21.736ZM6.23171 22.656V22.4941H5.11819V22.656H6.23171ZM6.23171 22.4941C6.23171 21.6571 6.82124 20.9521 7.62097 20.8067L7.42177 19.7111C6.08354 19.9545 5.11819 21.1282 5.11819 22.4941H6.23171ZM8.07813 20.2589V15.1084H6.96461V20.2589H8.07813ZM7.48895 14.5526C3.30675 14.7965 4.94162e-05 18.2802 4.94162e-05 22.5265H1.11357C1.11357 18.8688 3.96159 15.8737 7.55379 15.6642L7.48895 14.5526ZM4.94162e-05 22.5265V22.6884H1.11357V22.5265H4.94162e-05ZM4.94162e-05 22.6884C4.94162e-05 23.2874 0.508466 23.7959 1.1075 23.7959V22.6823C1.11761 22.6823 1.1231 22.6846 1.12348 22.6848C1.12365 22.6849 1.12288 22.6845 1.12144 22.6835C1.11998 22.6825 1.11826 22.6811 1.11651 22.6794C1.11476 22.6776 1.11337 22.6759 1.11237 22.6745C1.11137 22.673 1.11104 22.6723 1.11112 22.6724C1.11129 22.6728 1.11357 22.6783 1.11357 22.6884H4.94162e-05ZM1.11199 23.7958L5.12876 23.7635L5.11978 22.65L1.10301 22.6824L1.11199 23.7958ZM5.15836 23.7624C5.76258 23.7254 6.23171 23.2609 6.23171 22.656H5.11819C5.11819 22.6582 5.11789 22.6566 5.11939 22.6529C5.12085 22.6493 5.12304 22.6462 5.1251 22.644C5.1272 22.6419 5.12745 22.6426 5.12354 22.6443C5.11969 22.646 5.10931 22.6498 5.09017 22.651L5.15836 23.7624Z" fill="#B02A30"/>
</svg>
