<svg width="32" height="32" viewBox="0 0 32 32" fill="none" xmlns="http://www.w3.org/2000/svg">
<path d="M18.6104 11.38L30.7423 18.2494C31.0339 18.4145 31.2338 18.704 31.2851 19.035V19.035C31.3984 19.7674 30.7669 20.3985 30.0346 20.2848L18.6104 18.5108" stroke="#B02A30" stroke-width="1.4" stroke-linecap="square"/>
<path d="M13.3896 11.38L1.25765 18.2494C0.96611 18.4145 0.766159 18.704 0.714927 19.035V19.035C0.601607 19.7674 1.23309 20.3985 1.96538 20.2848L13.3896 18.5108" stroke="#B02A30" stroke-width="1.4" stroke-linecap="square"/>
<path d="M12.1026 14.2079L9.12183 15.8739" stroke="#F99D27" stroke-opacity="0.3" stroke-width="1.4" stroke-linecap="round"/>
<path d="M18.4237 26.8231L22.0698 29.2538C22.3911 29.468 22.5418 29.862 22.4457 30.236V30.236C22.3125 30.7538 21.7632 31.0452 21.2598 30.8651L17.3514 29.467" stroke="#B02A30" stroke-width="1.4" stroke-linecap="round"/>
<path d="M14.3953 26.8231L10.7492 29.2538C10.4279 29.468 10.2771 29.862 10.3733 30.236V30.236C10.5064 30.7538 11.0557 31.0452 11.5591 30.8651L15.4675 29.467" stroke="#B02A30" stroke-width="1.4" stroke-linecap="round"/>
<path d="M16.3324 0.361328V0.361328C17.5366 2.36513 18.1991 4.64766 18.2548 6.98484L18.6052 21.6887C18.6798 24.8177 17.9382 27.9122 16.4535 30.6675V30.6675" stroke="#B02A30" stroke-width="1.4" stroke-linecap="round"/>
<path d="M15.9307 0.361328V0.361328C14.7264 2.36513 14.0639 4.64766 14.0082 6.98484L13.6648 21.3923C13.5862 24.6924 14.5272 27.9365 16.3596 30.6822V30.6822" stroke="#B02A30" stroke-width="1.4" stroke-linecap="round"/>
<path d="M15.9622 4.27446L15.4785 8.26295V20.6516C15.4785 22.7785 15.7449 24.8971 16.2714 26.9579V26.9579" stroke="#F99D27" stroke-opacity="0.3" stroke-width="1.2" stroke-linecap="round"/>
</svg>
