<svg width="25" height="22" viewBox="0 0 25 22" fill="none" xmlns="http://www.w3.org/2000/svg">
<path d="M24.5882 10.4824L12.898 0.129412C12.7255 0.0431373 12.5529 0 12.4235 0C12.251 0 12.0784 0.0431373 11.949 0.129412L0.215686 10.4824C0.0431373 10.6549 0 10.8275 0 11C0 11.3882 0.301961 11.6902 0.690196 11.6902C0.819608 11.6902 0.992157 11.6471 1.12157 11.5176L2.76078 10.0941V18.5922C2.76078 20.4902 4.27059 22 6.21176 22H18.5922C20.4902 22 22.0431 20.4471 22.0431 18.5922V10.0941L23.6824 11.5176C23.8118 11.6471 23.9843 11.6902 24.1137 11.6902C24.4588 11.6902 24.8039 11.3882 24.8039 11.0431C24.8039 10.8275 24.7608 10.6549 24.5882 10.4824ZM14.4941 20.6627H10.3529V13.7608H14.4941V20.6627ZM20.6627 8.92941V18.5922C20.6627 19.7569 19.7137 20.6627 18.5922 20.6627H15.8314V13.5451C15.8745 12.898 15.3569 12.3804 14.7098 12.3804H10.1373C9.4902 12.3804 8.97255 12.898 8.97255 13.5451V20.6627H6.21176C5.04706 20.6627 4.14118 19.7569 4.14118 18.5922V8.92941C4.14118 8.92941 4.09804 8.92941 4.09804 8.88627L12.4235 1.59608L20.7059 8.88627C20.7059 8.92941 20.6627 8.92941 20.6627 8.92941Z" fill="#3A3A3D"/>
</svg>
