<svg width="290" height="70" viewBox="0 0 290 70" fill="none" xmlns="http://www.w3.org/2000/svg">
<path d="M0.0916803 69.0042L3.30298 68.7084C6.51429 68.4126 12.9369 67.821 19.3595 62.4622C25.7821 57.1033 32.2047 46.9772 38.6273 45.9118C45.0499 44.8464 51.4725 52.8417 57.8952 50.4385C64.3178 48.0353 70.7404 35.2336 77.163 28.7046C83.5856 22.1755 90.0082 21.9191 96.4308 22.0082C102.853 22.0972 109.276 22.5317 115.699 26.5725C122.121 30.6134 128.544 38.2606 134.966 39.4828C141.389 40.705 147.812 35.5021 154.234 30.0673C160.657 24.6325 167.08 18.9656 173.502 16.3381C179.925 13.7105 186.347 14.1222 192.77 10.9687C199.193 7.81518 205.615 1.09648 212.038 1.00109C218.46 0.905703 224.883 7.43363 231.306 16.1867C237.728 24.9398 244.151 35.9181 250.573 36.3381C256.996 36.7581 263.419 26.6198 269.841 25.1183C276.264 23.6168 282.686 30.752 285.898 34.3197L289.109 37.8873" stroke="#66B0FF" stroke-width="2"/>
</svg>
