<svg width="40" height="40" viewBox="0 0 40 40" fill="none" xmlns="http://www.w3.org/2000/svg">
<rect width="40" height="40" fill="white"/>
<path d="M7.46886 24.7908C7.56387 24.5045 7.83159 24.3113 8.13323 24.3113H16.9386C17.2288 24.3113 17.4889 24.4903 17.5925 24.7614L19.6889 30.2471C19.864 30.7054 19.5256 31.197 19.035 31.197H6.31277C5.83537 31.197 5.49804 30.7296 5.6484 30.2765L7.46886 24.7908Z" fill="white" stroke="#B02A30" stroke-width="1.4"/>
<path d="M22.7732 24.7908C22.8682 24.5045 23.1359 24.3113 23.4376 24.3113H32.2429C32.5331 24.3113 32.7932 24.4903 32.8968 24.7614L34.9932 30.2471C35.1683 30.7054 34.8299 31.197 34.3393 31.197H21.6171C21.1397 31.197 20.8024 30.7296 20.9527 30.2765L22.7732 24.7908Z" fill="white" stroke="#B02A30" stroke-width="1.4"/>
<path d="M14.9358 17.9471C15.0308 17.6608 15.2985 17.4675 15.6002 17.4675H24.4055C24.6957 17.4675 24.9558 17.6466 25.0594 17.9177L27.1558 23.4034C27.3309 23.8617 26.9925 24.3533 26.5019 24.3533H13.7797C13.3023 24.3533 12.965 23.8859 13.1153 23.4328L14.9358 17.9471Z" fill="white" stroke="#B02A30" stroke-width="1.4"/>
<path d="M16.6378 19.999L15.9622 22.2478" stroke="#F99D27" stroke-opacity="0.3" stroke-width="1.4" stroke-linecap="round"/>
<path d="M9.16836 26.8448L8.49272 29.0937" stroke="#F99D27" stroke-opacity="0.3" stroke-width="1.4" stroke-linecap="round"/>
<path d="M24.4752 26.782L23.7996 29.0309" stroke="#F99D27" stroke-opacity="0.3" stroke-width="1.4" stroke-linecap="round"/>
<path d="M19.8684 4.69049L21.4794 7.94835L19.8684 11.2062" stroke="#B02A30" stroke-width="1.4" stroke-linecap="round"/>
<path d="M19.4865 4.7171L17.8754 7.97496L19.4865 11.2328" stroke="#B02A30" stroke-width="1.4" stroke-linecap="round"/>
<path d="M23.014 8.09784L19.7318 9.69688L16.4495 8.09784" stroke="#B02A30" stroke-width="1.4" stroke-linecap="round"/>
<path d="M22.9873 7.71872L19.705 6.11968L16.4227 7.71872" stroke="#B02A30" stroke-width="1.4" stroke-linecap="round"/>
<path d="M29.6075 10.2143L31.2186 13.4722L29.6075 16.73" stroke="#B02A30" stroke-width="1.4" stroke-linecap="round"/>
<path d="M29.2256 10.2409L27.6146 13.4988L29.2256 16.7566" stroke="#B02A30" stroke-width="1.4" stroke-linecap="round"/>
<path d="M32.7532 13.6216L29.4709 15.2207L26.1886 13.6216" stroke="#B02A30" stroke-width="1.4" stroke-linecap="round"/>
<path d="M32.7264 13.2425L29.4442 11.6435L26.1619 13.2425" stroke="#B02A30" stroke-width="1.4" stroke-linecap="round"/>
<path d="M10.1292 10.2143L11.7403 13.4722L10.1292 16.73" stroke="#B02A30" stroke-width="1.4" stroke-linecap="round"/>
<path d="M9.74731 10.2409L8.13628 13.4988L9.74731 16.7566" stroke="#B02A30" stroke-width="1.4" stroke-linecap="round"/>
<path d="M13.2749 13.6216L9.99262 15.2207L6.71034 13.6216" stroke="#B02A30" stroke-width="1.4" stroke-linecap="round"/>
<path d="M13.2482 13.2425L9.96589 11.6435L6.68361 13.2425" stroke="#B02A30" stroke-width="1.4" stroke-linecap="round"/>
</svg>
