<svg width="36" height="36" viewBox="0 0 36 36" fill="none" xmlns="http://www.w3.org/2000/svg">
<path d="M18 27C23.5228 27 28 22.5228 28 17C28 11.4772 23.5228 7 18 7C12.4772 7 8 11.4772 8 17C8 22.5228 12.4772 27 18 27Z" stroke="#919199" stroke-width="1.5" stroke-linecap="round" stroke-linejoin="round"/>
<path d="M18 23C21.3137 23 24 20.3137 24 17C24 13.6863 21.3137 11 18 11C14.6863 11 12 13.6863 12 17C12 20.3137 14.6863 23 18 23Z" stroke="#919199" stroke-width="1.5" stroke-linecap="round" stroke-linejoin="round"/>
<path d="M18 19C19.1046 19 20 18.1046 20 17C20 15.8954 19.1046 15 18 15C16.8954 15 16 15.8954 16 17C16 18.1046 16.8954 19 18 19Z" stroke="#919199" stroke-width="1.5" stroke-linecap="round" stroke-linejoin="round"/>
</svg>
