<svg width="40" height="40" viewBox="0 0 40 40" fill="none" xmlns="http://www.w3.org/2000/svg">
<rect width="40" height="40" fill="white"/>
<rect x="6.702" y="23.55" width="7.02" height="2.808" rx="0.702" fill="white" stroke="#B02A30" stroke-width="1.404"/>
<rect x="6.702" y="20.742" width="7.02" height="2.808" rx="0.702" fill="white" stroke="#B02A30" stroke-width="1.404"/>
<rect x="16.53" y="23.55" width="7.02" height="2.808" rx="0.702" fill="white" stroke="#B02A30" stroke-width="1.404"/>
<rect x="16.53" y="20.742" width="7.02" height="2.808" rx="0.702" fill="white" stroke="#B02A30" stroke-width="1.404"/>
<rect x="16.53" y="17.934" width="7.02" height="2.808" rx="0.702" fill="white" stroke="#B02A30" stroke-width="1.404"/>
<rect x="6.702" y="26.358" width="7.02" height="2.808" rx="0.702" fill="white" stroke="#B02A30" stroke-width="1.404"/>
<rect x="16.53" y="26.358" width="7.02" height="2.808" rx="0.702" fill="white" stroke="#B02A30" stroke-width="1.404"/>
<rect x="26.358" y="23.55" width="7.02" height="2.808" rx="0.702" fill="white" stroke="#B02A30" stroke-width="1.404"/>
<rect x="26.358" y="17.934" width="7.02" height="2.808" rx="0.702" fill="white" stroke="#B02A30" stroke-width="1.404"/>
<rect x="26.358" y="15.126" width="7.02" height="2.808" rx="0.702" fill="white" stroke="#B02A30" stroke-width="1.404"/>
<rect x="26.358" y="12.318" width="7.02" height="2.808" rx="0.702" fill="white" stroke="#B02A30" stroke-width="1.404"/>
<rect x="26.358" y="26.358" width="7.02" height="2.808" rx="0.702" fill="white" stroke="#B02A30" stroke-width="1.404"/>
<rect x="26.358" y="20.742" width="7.02" height="2.808" rx="0.702" fill="white" stroke="#B02A30" stroke-width="1.404"/>
<path d="M10.1199 16.708H12.7958L15.828 13.722H20.0116L26.6872 7.36304H29.8637" stroke="#F99D27" stroke-opacity="0.3" stroke-width="1.404" stroke-linecap="round"/>
<circle cx="29.868" cy="7.404" r="1.404" fill="white" stroke="#B02A30" stroke-width="1.404"/>
<circle cx="20.04" cy="13.02" r="1.404" fill="white" stroke="#B02A30" stroke-width="1.404"/>
<circle cx="9.81147" cy="16.6752" r="1.404" fill="white" stroke="#B02A30" stroke-width="1.404"/>
<rect x="8.80798" y="21.444" width="1.404" height="1.404" fill="#F99D27" fill-opacity="0.3"/>
<rect x="18.636" y="18.636" width="1.404" height="1.404" fill="#F99D27" fill-opacity="0.3"/>
<rect x="28.464" y="18.636" width="1.404" height="1.404" fill="#F99D27" fill-opacity="0.3"/>
<rect x="28.464" y="13.02" width="1.404" height="1.404" fill="#F99D27" fill-opacity="0.3"/>
<rect x="18.636" y="21.444" width="1.404" height="1.404" fill="#F99D27" fill-opacity="0.3"/>
<rect x="28.464" y="21.444" width="1.404" height="1.404" fill="#F99D27" fill-opacity="0.3"/>
<rect x="28.464" y="15.828" width="1.404" height="1.404" fill="#F99D27" fill-opacity="0.3"/>
<rect x="8.80798" y="24.252" width="1.404" height="1.404" fill="#F99D27" fill-opacity="0.3"/>
<rect x="18.636" y="24.252" width="1.404" height="1.404" fill="#F99D27" fill-opacity="0.3"/>
<rect x="28.464" y="24.252" width="1.404" height="1.404" fill="#F99D27" fill-opacity="0.3"/>
<rect x="8.80798" y="27.06" width="1.404" height="1.404" fill="#F99D27" fill-opacity="0.3"/>
<rect x="18.636" y="27.06" width="1.404" height="1.404" fill="#F99D27" fill-opacity="0.3"/>
<rect x="28.464" y="27.06" width="1.404" height="1.404" fill="#F99D27" fill-opacity="0.3"/>
</svg>
