<svg width="40" height="40" viewBox="0 0 40 40" fill="none" xmlns="http://www.w3.org/2000/svg">
<rect width="40" height="40" fill="white"/>
<path d="M4.05291 13.8C4.05291 12.6402 4.99311 11.7 6.15291 11.7H22.0883C29.1548 11.7 34.8833 17.4285 34.8833 24.495C34.8833 24.6818 34.732 24.8331 34.5453 24.8331H4.7529C4.36631 24.8331 4.05291 24.5197 4.05291 24.1331V13.8Z" stroke="#B02A30" stroke-width="1.4"/>
<path d="M6.54759 13.8333L6.53583 15.3793" stroke="#F99D27" stroke-opacity="0.3" stroke-width="1.4" stroke-linecap="round"/>
<path d="M15.0476 13.8333L15.0358 15.3793" stroke="#F99D27" stroke-opacity="0.3" stroke-width="1.4" stroke-linecap="round"/>
<path d="M20.7142 13.8333L20.7025 15.3793" stroke="#F99D27" stroke-opacity="0.3" stroke-width="1.4" stroke-linecap="round"/>
<path d="M27.812 13.7314V16.7457" stroke="#F99D27" stroke-opacity="0.3" stroke-width="1.4" stroke-linecap="round"/>
<path d="M32.75 13.125H36.3006V14.4967" stroke="#B02A30" stroke-width="1.4" stroke-linecap="round" stroke-linejoin="round"/>
<path d="M5.125 17.375H23.7621C24.5106 17.375 25.2107 17.7448 25.6327 18.3631V18.3631C26.0547 18.9813 26.7548 19.3512 27.5033 19.3512H34.6837" stroke="#B02A30" stroke-width="1.4" stroke-linecap="square"/>
<path d="M24.9583 11.7083V17.375" stroke="#B02A30" stroke-width="1.4" stroke-linecap="square"/>
<path d="M15.0416 22.3333H23.5416" stroke="#F99D27" stroke-opacity="0.3" stroke-width="1.4" stroke-linecap="round"/>
<path d="M18.4608 11.7555V17.4222" stroke="#B02A30" stroke-width="1.4" stroke-linecap="square"/>
<path d="M12.2083 11.7555V15.9583" stroke="#B02A30" stroke-width="1.4" stroke-linecap="square"/>
<circle cx="10.0833" cy="25.1667" r="2.83333" fill="white" stroke="#B02A30" stroke-width="1.4"/>
<circle cx="28.5" cy="25.1667" r="2.83333" fill="white" stroke="#B02A30" stroke-width="1.4"/>
</svg>
