<svg width="14" height="14" viewBox="0 0 14 14" fill="none" xmlns="http://www.w3.org/2000/svg">
<path fill-rule="evenodd" clip-rule="evenodd" d="M6.39063 4.09034C5.32503 4.09034 4.46055 3.23349 4.46055 2.1773C4.46055 1.12112 5.32503 0.264265 6.39063 0.264265C7.45622 0.264265 8.32071 1.12112 8.32071 2.1773C8.32071 3.23349 7.45622 4.09034 6.39063 4.09034ZM6.39063 0.8593C5.65822 0.8593 5.06088 1.45136 5.06088 2.1773C5.06088 2.90324 5.65822 3.4953 6.39063 3.4953C7.12304 3.4953 7.72037 2.90324 7.72037 2.1773C7.72037 1.45136 7.12604 0.8593 6.39063 0.8593ZM2.18528 5.89329C3.38895 5.09 4.97984 4.6467 6.66978 4.6467C7.74138 4.6467 8.79197 4.82818 9.72549 5.1733L10.3168 4.45331C10.4849 4.24802 10.7611 4.17959 11.0072 4.27777C11.2533 4.37595 11.4034 4.61694 11.3794 4.87876C11.3619 5.08515 11.3424 5.30771 11.3232 5.52641L11.3231 5.52684L11.3231 5.52707L11.3231 5.52718C11.3094 5.68338 11.2959 5.83761 11.2834 5.98255C11.9467 6.45263 12.448 7.01791 12.7482 7.63674H13.4356C13.6007 7.63674 13.7357 7.77063 13.7357 7.93426V10.2103C13.7357 10.3739 13.6007 10.5078 13.4356 10.5078H12.7032C12.361 11.1623 11.7936 11.7544 11.0462 12.2304V13.4056C11.0462 13.5692 10.9112 13.7031 10.7461 13.7031H9.26323C9.12216 13.7031 9.00209 13.6049 8.96907 13.4711L8.89403 13.1349C8.18263 13.3134 7.43821 13.4056 6.66978 13.4056C5.90736 13.4056 5.16294 13.3163 4.45755 13.1378L4.38251 13.4711C4.35249 13.6079 4.22942 13.7031 4.08834 13.7031H2.60551C2.44042 13.7031 2.30534 13.5692 2.30534 13.4056V12.2364C1.00562 11.4122 0.264204 10.2489 0.264204 9.02615C0.264204 7.83608 0.945585 6.72337 2.18528 5.89329ZM2.7586 11.8169C2.84865 11.8704 2.90268 11.9686 2.90268 12.0727V13.1111H3.84521L3.93526 12.7064C3.95327 12.6261 4.0043 12.5577 4.07634 12.516C4.14838 12.4744 4.23242 12.4625 4.31347 12.4863C5.05788 12.7035 5.84732 12.8135 6.66678 12.8135C7.48924 12.8135 8.28469 12.7035 9.0291 12.4833C9.11015 12.4595 9.1942 12.4714 9.26624 12.5131C9.33828 12.5547 9.3893 12.6231 9.40732 12.7035L9.49737 13.1111H10.4399V12.0668C10.4399 11.9626 10.4939 11.8674 10.584 11.8109C11.3644 11.3408 11.9377 10.7458 12.2349 10.0883C12.2829 9.98118 12.391 9.91275 12.508 9.91275H13.1354V8.23178H12.5561C12.433 8.23178 12.3249 8.16037 12.2799 8.04732C12.0188 7.41956 11.5085 6.84237 10.8031 6.37527C10.713 6.31577 10.662 6.21164 10.671 6.10155C10.6908 5.87128 10.7139 5.60887 10.7369 5.34646L10.7821 4.83116L10.0587 5.71776C9.97463 5.81891 9.83355 5.85462 9.71349 5.80701C8.80098 5.43809 7.75039 5.2447 6.67579 5.2447C5.10291 5.2447 3.62909 5.6523 2.52747 6.39015C1.45887 7.10419 0.870543 8.04137 0.870543 9.02912C0.864539 10.0823 1.55493 11.0969 2.7586 11.8169ZM10.647 8.05922C10.4133 8.05922 10.2238 7.8714 10.2238 7.63972C10.2238 7.40804 10.4133 7.22022 10.647 7.22022C10.8808 7.22022 11.0702 7.40804 11.0702 7.63972C11.0702 7.8714 10.8808 8.05922 10.647 8.05922ZM5.21397 6.68609H7.78041C7.9455 6.68609 8.08057 6.81997 8.08057 6.98361C8.08057 7.14724 7.9455 7.28112 7.78041 7.28112H5.21397C5.04888 7.28112 4.9138 7.14724 4.9138 6.98361C4.9138 6.81997 5.04588 6.68609 5.21397 6.68609Z" fill="white"/>
<path d="M2.18528 5.89329L2.03825 5.67371L2.03858 5.67348L2.18528 5.89329ZM9.72549 5.1733L9.92971 5.34103L9.81031 5.4864L9.63386 5.42117L9.72549 5.1733ZM10.3168 4.45331L10.5213 4.62073L10.521 4.62103L10.3168 4.45331ZM11.0072 4.27777L10.9093 4.52323H10.9093L11.0072 4.27777ZM11.3794 4.87876L11.1161 4.85643L11.1163 4.85462L11.3794 4.87876ZM11.3232 5.52641L11.5864 5.54952L11.5864 5.54966L11.3232 5.52641ZM11.3231 5.52684L11.5864 5.55009L11.5864 5.55031L11.3231 5.52684ZM11.3231 5.52707L11.0599 5.50418L11.0599 5.5036L11.3231 5.52707ZM11.3231 5.52718L11.5864 5.55007L11.5864 5.55029L11.3231 5.52718ZM11.2834 5.98255L11.1306 6.19817L11.0071 6.11065L11.0201 5.95984L11.2834 5.98255ZM12.7482 7.63674V7.90101H12.5827L12.5104 7.75208L12.7482 7.63674ZM12.7032 10.5078L12.469 10.3854L12.5431 10.2435H12.7032V10.5078ZM11.0462 12.2304H10.782V12.0854L10.9043 12.0075L11.0462 12.2304ZM8.96907 13.4711L8.71243 13.5344L8.71115 13.5286L8.96907 13.4711ZM8.89403 13.1349L8.82971 12.8785L9.09285 12.8125L9.15195 13.0773L8.89403 13.1349ZM4.45755 13.1378L4.19974 13.0798L4.25935 12.8151L4.52238 12.8816L4.45755 13.1378ZM4.38251 13.4711L4.12437 13.4144L4.1247 13.413L4.38251 13.4711ZM2.30534 12.2364L2.44686 12.0132L2.56961 12.091V12.2364H2.30534ZM2.7586 11.8169L2.62352 12.044L2.62294 12.0437L2.7586 11.8169ZM2.90268 13.1111V13.3753H2.63841V13.1111H2.90268ZM3.84521 13.1111L4.10316 13.1685L4.05712 13.3753H3.84521V13.1111ZM3.93526 12.7064L3.6773 12.649L3.67739 12.6486L3.93526 12.7064ZM4.31347 12.4863L4.23945 12.74L4.239 12.7398L4.31347 12.4863ZM9.0291 12.4833L8.95416 12.2299L8.95464 12.2297L9.0291 12.4833ZM9.40732 12.7035L9.66518 12.6457L9.66536 12.6465L9.40732 12.7035ZM9.49737 13.1111V13.3753H9.28511L9.23932 13.1681L9.49737 13.1111ZM10.4399 13.1111H10.7042V13.3753H10.4399V13.1111ZM10.584 11.8109L10.4434 11.5871L10.4476 11.5845L10.584 11.8109ZM12.2349 10.0883L12.476 10.1964L12.4757 10.1971L12.2349 10.0883ZM13.1354 9.91275H13.3997V10.177H13.1354V9.91275ZM13.1354 8.23178V7.96751H13.3997V8.23178H13.1354ZM12.2799 8.04732L12.5239 7.94581L12.5254 7.94954L12.2799 8.04732ZM10.8031 6.37527L10.9488 6.15479L10.949 6.15493L10.8031 6.37527ZM10.671 6.10155L10.4076 6.08001L10.4077 6.0789L10.671 6.10155ZM10.7369 5.34646L11.0002 5.36952L11.0002 5.36958L10.7369 5.34646ZM10.7821 4.83116L10.5773 4.66409L11.1203 3.99863L11.0453 4.85422L10.7821 4.83116ZM10.0587 5.71776L10.2634 5.88483L10.2619 5.88664L10.0587 5.71776ZM9.71349 5.80701L9.61609 6.05268L9.61443 6.05201L9.71349 5.80701ZM2.52747 6.39015L2.67453 6.60971L2.67429 6.60987L2.52747 6.39015ZM0.870543 9.02912H1.13481L1.1348 9.03063L0.870543 9.02912ZM4.72482 2.1773C4.72482 3.08533 5.46877 3.82607 6.39063 3.82607V4.3546C5.1813 4.3546 4.19628 3.38164 4.19628 2.1773H4.72482ZM6.39063 0.528531C5.46877 0.528531 4.72482 1.26927 4.72482 2.1773H4.19628C4.19628 0.972961 5.1813 0 6.39063 0V0.528531ZM8.05644 2.1773C8.05644 1.26927 7.31249 0.528531 6.39063 0.528531V0C7.59996 0 8.58497 0.972961 8.58497 2.1773H8.05644ZM6.39063 3.82607C7.31249 3.82607 8.05644 3.08533 8.05644 2.1773H8.58497C8.58497 3.38164 7.59996 4.3546 6.39063 4.3546V3.82607ZM4.79662 2.1773C4.79662 1.3032 5.51448 0.595035 6.39063 0.595035V1.12357C5.80195 1.12357 5.32515 1.59951 5.32515 2.1773H4.79662ZM6.39063 3.75957C5.51448 3.75957 4.79662 3.0514 4.79662 2.1773H5.32515C5.32515 2.75509 5.80195 3.23104 6.39063 3.23104V3.75957ZM7.98464 2.1773C7.98464 3.0514 7.26677 3.75957 6.39063 3.75957V3.23104C6.9793 3.23104 7.45611 2.75509 7.45611 2.1773H7.98464ZM6.39063 0.595035C7.27016 0.595035 7.98464 1.30359 7.98464 2.1773H7.45611C7.45611 1.59913 6.98191 1.12357 6.39063 1.12357V0.595035ZM6.66978 4.91096C5.02329 4.91096 3.48545 5.3433 2.33197 6.1131L2.03858 5.67348C3.29245 4.83669 4.93639 4.38243 6.66978 4.38243V4.91096ZM9.63386 5.42117C8.73175 5.08766 7.7124 4.91096 6.66978 4.91096V4.38243C7.77037 4.38243 8.8522 4.5687 9.81713 4.92543L9.63386 5.42117ZM10.521 4.62103L9.92971 5.34103L9.52128 5.00558L10.1126 4.28558L10.521 4.62103ZM10.9093 4.52323C10.768 4.46688 10.6149 4.50639 10.5213 4.62073L10.1124 4.28589C10.3549 3.98966 10.7541 3.89231 11.1051 4.03232L10.9093 4.52323ZM11.1163 4.85462C11.1294 4.71168 11.0489 4.57892 10.9093 4.52323L11.1051 4.03232C11.4578 4.17298 11.6775 4.52221 11.6426 4.9029L11.1163 4.85462ZM11.0599 5.5033C11.0791 5.28451 11.0986 5.06236 11.1161 4.85643L11.6427 4.90108C11.6252 5.10794 11.6056 5.3309 11.5864 5.54952L11.0599 5.5033ZM11.0599 5.50358L11.0599 5.50315L11.5864 5.54966L11.5864 5.55009L11.0599 5.50358ZM11.0599 5.5036L11.0599 5.50337L11.5864 5.55031L11.5863 5.55055L11.0599 5.5036ZM11.0598 5.50429L11.0599 5.50418L11.5864 5.54997L11.5864 5.55007L11.0598 5.50429ZM11.0201 5.95984C11.0326 5.81466 11.0462 5.66023 11.0599 5.50407L11.5864 5.55029C11.5727 5.70654 11.5591 5.86055 11.5467 6.00525L11.0201 5.95984ZM12.5104 7.75208C12.233 7.18018 11.7644 6.64732 11.1306 6.19817L11.4362 5.76693C12.129 6.25793 12.663 6.85564 12.986 7.52141L12.5104 7.75208ZM13.4356 7.90101H12.7482V7.37248H13.4356V7.90101ZM13.4715 7.93426C13.4715 7.92672 13.4686 7.91886 13.4615 7.91183C13.4544 7.90477 13.4454 7.90101 13.4356 7.90101V7.37248C13.7444 7.37248 14 7.62247 14 7.93426H13.4715ZM13.4715 10.2103V7.93426H14V10.2103H13.4715ZM13.4356 10.2435C13.4454 10.2435 13.4544 10.2398 13.4615 10.2327C13.4686 10.2257 13.4715 10.2178 13.4715 10.2103H14C14 10.5221 13.7444 10.7721 13.4356 10.7721V10.2435ZM12.7032 10.2435H13.4356V10.7721H12.7032V10.2435ZM10.9043 12.0075C11.62 11.5517 12.1519 10.9919 12.469 10.3854L12.9373 10.6302C12.5701 11.3328 11.9673 11.9571 11.1882 12.4533L10.9043 12.0075ZM10.782 13.4056V12.2304H11.3105V13.4056H10.782ZM10.7461 13.4389C10.7559 13.4389 10.7649 13.4351 10.772 13.428C10.7791 13.421 10.782 13.4132 10.782 13.4056H11.3105C11.3105 13.7174 11.0549 13.9674 10.7461 13.9674V13.4389ZM9.26323 13.4389H10.7461V13.9674H9.26323V13.4389ZM9.22565 13.4078C9.23048 13.4274 9.24754 13.4389 9.26323 13.4389V13.9674C8.99677 13.9674 8.7737 13.7825 8.71249 13.5343L9.22565 13.4078ZM9.15195 13.0773L9.22699 13.4135L8.71115 13.5286L8.63611 13.1924L9.15195 13.0773ZM6.66978 13.1413C7.41698 13.1413 8.13978 13.0517 8.82971 12.8785L8.95835 13.3912C8.22548 13.5751 7.45945 13.6699 6.66978 13.6699V13.1413ZM4.52238 12.8816C5.20531 13.0545 5.92786 13.1413 6.66978 13.1413V13.6699C5.88685 13.6699 5.12058 13.5782 4.39272 13.394L4.52238 12.8816ZM4.1247 13.413L4.19974 13.0798L4.71536 13.1959L4.64031 13.5291L4.1247 13.413ZM4.08834 13.4389C4.11089 13.4389 4.12214 13.4247 4.12438 13.4144L4.64064 13.5277C4.58284 13.7912 4.34795 13.9674 4.08834 13.9674V13.4389ZM2.60551 13.4389H4.08834V13.9674H2.60551V13.4389ZM2.56961 13.4056C2.56961 13.4132 2.57247 13.421 2.57955 13.428C2.58667 13.4351 2.59569 13.4389 2.60551 13.4389V13.9674C2.29669 13.9674 2.04108 13.7174 2.04108 13.4056H2.56961ZM2.56961 12.2364V13.4056H2.04108V12.2364H2.56961ZM0.528469 9.02615C0.528469 10.1343 1.20066 11.223 2.44686 12.0132L2.16383 12.4595C0.810573 11.6015 -6.14936e-05 10.3636 -6.14936e-05 9.02615H0.528469ZM2.33231 6.11288C1.14503 6.90785 0.528469 7.94669 0.528469 9.02615H-6.14936e-05C-6.14936e-05 7.72548 0.746135 6.53888 2.03825 5.67371L2.33231 6.11288ZM2.63841 12.0727C2.63841 12.0589 2.63105 12.0485 2.62352 12.044L2.89368 11.5897C3.06625 11.6924 3.16694 11.8782 3.16694 12.0727H2.63841ZM2.63841 13.1111V12.0727H3.16694V13.1111H2.63841ZM3.84521 13.3753H2.90268V12.8468H3.84521V13.3753ZM4.19321 12.7638L4.10316 13.1685L3.58725 13.0537L3.6773 12.649L4.19321 12.7638ZM4.20861 12.7448C4.19883 12.7505 4.19457 12.7578 4.19312 12.7643L3.67739 12.6486C3.71196 12.4944 3.80976 12.3649 3.94406 12.2872L4.20861 12.7448ZM4.239 12.7398C4.234 12.7384 4.22967 12.7381 4.22551 12.7387C4.22118 12.7392 4.21544 12.7409 4.20861 12.7448L3.94406 12.2872C4.07547 12.2113 4.23397 12.1875 4.38793 12.2327L4.239 12.7398ZM6.66678 13.0778C5.8236 13.0778 5.00915 12.9645 4.23945 12.74L4.38748 12.2326C5.10662 12.4424 5.87105 12.5493 6.66678 12.5493V13.0778ZM9.10405 12.7367C8.33355 12.9646 7.51272 13.0778 6.66678 13.0778V12.5493C7.46576 12.5493 8.23582 12.4423 8.95416 12.2299L9.10405 12.7367ZM9.13396 12.7418C9.12713 12.7379 9.12139 12.7363 9.11706 12.7357C9.1129 12.7352 9.10857 12.7354 9.10357 12.7369L8.95464 12.2297C9.1086 12.1845 9.2671 12.2083 9.39851 12.2843L9.13396 12.7418ZM9.14945 12.7613C9.148 12.7548 9.14374 12.7475 9.13396 12.7418L9.39851 12.2843C9.53281 12.3619 9.63061 12.4915 9.66518 12.6457L9.14945 12.7613ZM9.23932 13.1681L9.14927 12.7605L9.66536 12.6465L9.75541 13.0541L9.23932 13.1681ZM10.4399 13.3753H9.49737V12.8468H10.4399V13.3753ZM10.7042 12.0668V13.1111H10.1756V12.0668H10.7042ZM10.7245 12.0347C10.716 12.04 10.7111 12.0459 10.7083 12.0509C10.7056 12.0557 10.7042 12.0609 10.7042 12.0668H10.1756C10.1756 11.8683 10.2794 11.6901 10.4435 11.5871L10.7245 12.0347ZM12.4757 10.1971C12.151 10.9156 11.5339 11.5473 10.7203 12.0373L10.4476 11.5845C11.195 11.1344 11.7245 10.576 11.9941 9.97945L12.4757 10.1971ZM12.508 10.177C12.4928 10.177 12.4805 10.1863 12.476 10.1964L11.9938 9.98016C12.0853 9.77601 12.2891 9.64849 12.508 9.64849V10.177ZM13.1354 10.177H12.508V9.64849H13.1354V10.177ZM13.3997 8.23178V9.91275H12.8711V8.23178H13.3997ZM12.5561 7.96751H13.1354V8.49604H12.5561V7.96751ZM12.5254 7.94954C12.5278 7.95558 12.5312 7.95934 12.5352 7.96199C12.5393 7.96473 12.546 7.96751 12.5561 7.96751V8.49604C12.3284 8.49604 12.1208 8.36198 12.0344 8.14509L12.5254 7.94954ZM10.949 6.15493C11.6873 6.64383 12.2381 7.2588 12.5239 7.94582L12.0359 8.14882C11.7994 7.58031 11.3297 7.04092 10.6572 6.59561L10.949 6.15493ZM10.9344 6.1231C10.9332 6.13764 10.9397 6.14876 10.9488 6.15479L10.6574 6.59575C10.4864 6.48278 10.3908 6.28563 10.4076 6.08001L10.9344 6.1231ZM11.0002 5.36958C10.9771 5.63206 10.9541 5.89421 10.9343 6.12421L10.4077 6.0789C10.4276 5.84834 10.4506 5.58568 10.4737 5.32333L11.0002 5.36958ZM11.0453 4.85422L11.0002 5.36952L10.4737 5.32339L10.5188 4.80809L11.0453 4.85422ZM9.85392 5.55069L10.5773 4.66409L10.9868 4.99822L10.2634 5.88482L9.85392 5.55069ZM9.81088 5.56135C9.81666 5.56364 9.82468 5.56457 9.83382 5.56222C9.84287 5.55989 9.8503 5.55504 9.85542 5.54888L10.2619 5.88664C10.1052 6.07523 9.84304 6.14265 9.61609 6.05268L9.81088 5.56135ZM6.67579 4.98044C7.78091 4.98044 8.86553 5.17914 9.81254 5.56201L9.61443 6.05201C8.73643 5.69704 7.71987 5.50897 6.67579 5.50897V4.98044ZM2.38041 6.17058C3.53303 5.39858 5.06035 4.98044 6.67579 4.98044V5.50897C5.14547 5.50897 3.72515 5.90603 2.67453 6.60971L2.38041 6.17058ZM0.606278 9.02912C0.606278 7.92707 1.26334 6.91701 2.38065 6.17042L2.67429 6.60987C1.65441 7.29137 1.13481 8.15566 1.13481 9.02912H0.606278ZM2.62294 12.0437C1.36996 11.2942 0.599567 10.2055 0.606282 9.02762L1.1348 9.03063C1.12951 9.9592 1.73989 10.8996 2.89426 11.5901L2.62294 12.0437ZM10.488 7.63972C10.488 7.72325 10.557 7.79495 10.647 7.79495V8.32348C10.2695 8.32348 9.95951 8.01956 9.95951 7.63972H10.488ZM10.647 7.48449C10.557 7.48449 10.488 7.55619 10.488 7.63972H9.95951C9.95951 7.25988 10.2695 6.95595 10.647 6.95595V7.48449ZM10.806 7.63972C10.806 7.55619 10.737 7.48449 10.647 7.48449V6.95595C11.0245 6.95595 11.3345 7.25988 11.3345 7.63972H10.806ZM10.647 7.79495C10.737 7.79495 10.806 7.72325 10.806 7.63972H11.3345C11.3345 8.01956 11.0245 8.32348 10.647 8.32348V7.79495ZM7.78041 6.95035H5.21397V6.42182H7.78041V6.95035ZM7.81631 6.98361C7.81631 6.97606 7.81345 6.9682 7.80637 6.96118C7.79925 6.95412 7.79023 6.95035 7.78041 6.95035V6.42182C8.08923 6.42182 8.34484 6.67182 8.34484 6.98361H7.81631ZM7.78041 7.01686C7.79023 7.01686 7.79925 7.01309 7.80637 7.00604C7.81345 6.99901 7.81631 6.99115 7.81631 6.98361H8.34484C8.34484 7.2954 8.08923 7.54539 7.78041 7.54539V7.01686ZM5.21397 7.01686H7.78041V7.54539H5.21397V7.01686ZM5.17807 6.98361C5.17807 6.99115 5.18092 6.99901 5.18801 7.00604C5.19513 7.01309 5.20415 7.01686 5.21397 7.01686V7.54539C4.90514 7.54539 4.64954 7.2954 4.64954 6.98361H5.17807ZM5.21397 6.95035C5.19134 6.95035 5.17807 6.96641 5.17807 6.98361H4.64954C4.64954 6.67354 4.90041 6.42182 5.21397 6.42182V6.95035Z" fill="white"/>
</svg>
