<svg width="29" height="27" viewBox="0 0 29 27" fill="none" xmlns="http://www.w3.org/2000/svg">
<path fill-rule="evenodd" clip-rule="evenodd" d="M7.82503 1.65591C3.08222 7.41496 0.711321 11.8824 0.711321 15.0581C0.711321 20.4015 3.3129 26.2886 9.66239 26.2886C16.0119 26.2886 19.3421 21.4056 19.3421 15.0591C19.3421 11.296 16.7913 6.77676 11.6888 1.50144C11.1755 0.9706 10.4601 0.683941 9.72231 0.713439C8.98449 0.742936 8.2943 1.08579 7.82503 1.65591V1.65591Z" stroke="#B02A30" stroke-width="1.4" stroke-linecap="square"/>
<path d="M8.49004 7.00419C8.17058 6.77551 7.72622 6.84911 7.49754 7.16858C7.26886 7.48804 7.34246 7.93241 7.66192 8.16108L8.49004 7.00419ZM10.454 9.28484L10.0399 9.86329L10.0401 9.86342L10.454 9.28484ZM12.4784 9.27468L12.0589 8.70016L12.0587 8.70029L12.4784 9.27468ZM14.6663 7.67715L14.247 7.10252L14.2468 7.10262L14.6663 7.67715ZM16.651 7.64056L16.2532 8.23025L16.2535 8.23048L16.651 7.64056ZM19.1784 9.34379L19.5761 8.75396L19.576 8.75387L19.1784 9.34379ZM21.1439 9.32041L20.7324 8.74011L20.7323 8.74021L21.1439 9.32041ZM23.3898 7.72796L23.8012 8.30826L23.8016 8.308L23.3898 7.72796ZM25.4883 7.80316L25.9408 7.25425L25.9406 7.25408L25.4883 7.80316ZM27.7146 10.5604C28.0178 10.8103 28.4661 10.7671 28.716 10.464C28.9659 10.1608 28.9228 9.71246 28.6196 9.46255L27.7146 10.5604ZM8.49021 12.8711C8.1708 12.6423 7.72642 12.7158 7.49765 13.0352C7.26888 13.3546 7.34236 13.799 7.66176 14.0277L8.49021 12.8711ZM10.454 15.1526L10.0398 15.731L10.0401 15.7312L10.454 15.1526ZM12.4784 15.1425L12.0589 14.5679L12.0587 14.5681L12.4784 15.1425ZM14.6663 13.5449L15.0858 14.1195L15.086 14.1193L14.6663 13.5449ZM16.651 13.5073L17.0488 12.9175L17.0486 12.9174L16.651 13.5073ZM19.1784 15.2116L18.7807 15.8014L18.7808 15.8014L19.1784 15.2116ZM21.1439 15.1882L21.5555 15.7684L21.5555 15.7684L21.1439 15.1882ZM23.3898 13.5947L22.9782 13.0145L22.9781 13.0146L23.3898 13.5947ZM25.4883 13.671L25.0357 14.2198L25.0358 14.2199L25.4883 13.671ZM27.7146 16.4282C28.0178 16.6781 28.4661 16.6349 28.716 16.3317C28.9659 16.0286 28.9228 15.5802 28.6196 15.3303L27.7146 16.4282ZM8.49021 18.9177C8.1708 18.689 7.72642 18.7624 7.49765 19.0818C7.26888 19.4012 7.34236 19.8456 7.66176 20.0744L8.49021 18.9177ZM10.454 21.1993L10.0398 21.7776L10.0401 21.7779L10.454 21.1993ZM12.4784 21.1891L12.0589 20.6146L12.0587 20.6147L12.4784 21.1891ZM14.6663 19.5916L15.0858 20.1661L15.086 20.166L14.6663 19.5916ZM16.651 19.554L17.0488 18.9642L17.0486 18.9641L16.651 19.554ZM19.1784 21.2582L18.7807 21.848L18.7808 21.848L19.1784 21.2582ZM21.1439 21.2349L21.5555 21.8151L21.5555 21.815L21.1439 21.2349ZM23.3898 19.6414L22.9782 19.0611L22.9781 19.0612L23.3898 19.6414ZM25.4883 19.7176L25.0357 20.2665L25.0358 20.2665L25.4883 19.7176ZM27.7146 22.4748C28.0178 22.7247 28.4661 22.6815 28.716 22.3784C28.9659 22.0752 28.9228 21.6269 28.6196 21.377L27.7146 22.4748ZM7.66192 8.16108L10.0399 9.86329L10.8681 8.7064L8.49004 7.00419L7.66192 8.16108ZM10.0401 9.86342C10.8961 10.4757 12.0483 10.4699 12.898 9.84907L12.0587 8.70029C11.7046 8.95899 11.2245 8.9614 10.8679 8.70627L10.0401 9.86342ZM12.8978 9.84921L15.0858 8.25167L14.2468 7.10262L12.0589 8.70016L12.8978 9.84921ZM15.0857 8.25177C15.4315 7.99942 15.8983 7.99082 16.2532 8.23025L17.0489 7.05087C16.1973 6.47623 15.0769 6.49688 14.247 7.10252L15.0857 8.25177ZM16.2535 8.23048L18.7809 9.9337L19.576 8.75387L17.0486 7.05064L16.2535 8.23048ZM18.7808 9.93361C19.6224 10.5011 20.7275 10.4879 21.5555 9.90061L20.7323 8.74021C20.3873 8.98494 19.9268 8.99041 19.5761 8.75396L18.7808 9.93361ZM21.5553 9.90071L23.8012 8.30826L22.9783 7.14766L20.7324 8.74011L21.5553 9.90071ZM23.8016 8.308C24.1758 8.04229 24.6817 8.06042 25.036 8.35224L25.9406 7.25408C25.0903 6.55371 23.8761 6.5102 22.9779 7.14792L23.8016 8.308ZM25.0358 8.35207L27.7146 10.5604L28.6196 9.46255L25.9408 7.25426L25.0358 8.35207ZM7.66176 14.0277L10.0398 15.731L10.8682 14.5743L8.49021 12.8711L7.66176 14.0277ZM10.0401 15.7312C10.8961 16.3435 12.0483 16.3377 12.898 15.7169L12.0587 14.5681C11.7046 14.8268 11.2245 14.8292 10.8679 14.5741L10.0401 15.7312ZM12.8978 15.717L15.0858 14.1195L14.2468 12.9704L12.0589 14.5679L12.8978 15.717ZM15.086 14.1193C15.4316 13.8668 15.8985 13.858 16.2535 14.0972L17.0486 12.9174C16.1967 12.3432 15.0763 12.3645 14.2467 12.9705L15.086 14.1193ZM16.2533 14.0971L18.7807 15.8014L19.5762 14.6218L17.0488 12.9175L16.2533 14.0971ZM18.7808 15.8014C19.6224 16.3689 20.7275 16.3557 21.5555 15.7684L20.7323 14.608C20.3873 14.8527 19.9268 14.8582 19.5761 14.6218L18.7808 15.8014ZM21.5555 15.7684L23.8014 14.1749L22.9781 13.0146L20.7322 14.608L21.5555 15.7684ZM23.8013 14.175C24.1757 13.9094 24.6816 13.9278 25.0357 14.2198L25.9409 13.1221C25.0909 12.4213 23.8767 12.3772 22.9782 13.0145L23.8013 14.175ZM25.0358 14.2199L27.7146 16.4282L28.6196 15.3303L25.9408 13.122L25.0358 14.2199ZM7.66176 20.0744L10.0398 21.7776L10.8682 20.621L8.49021 18.9177L7.66176 20.0744ZM10.0401 21.7779C10.8961 22.3902 12.0483 22.3844 12.898 21.7635L12.0587 20.6147C11.7046 20.8734 11.2245 20.8758 10.8679 20.6207L10.0401 21.7779ZM12.8978 21.7636L15.0858 20.1661L14.2468 19.0171L12.0589 20.6146L12.8978 21.7636ZM15.086 20.166C15.4316 19.9135 15.8985 19.9046 16.2535 20.1439L17.0486 18.9641C16.1967 18.3899 15.0763 18.4111 14.2467 19.0172L15.086 20.166ZM16.2533 20.1438L18.7807 21.848L19.5762 20.6684L17.0488 18.9642L16.2533 20.1438ZM18.7808 21.848C19.6224 22.4155 20.7275 22.4024 21.5555 21.8151L20.7323 20.6547C20.3873 20.8994 19.9268 20.9049 19.5761 20.6684L18.7808 21.848ZM21.5555 21.815L23.8014 20.2216L22.9781 19.0612L20.7322 20.6547L21.5555 21.815ZM23.8013 20.2216C24.1757 19.9561 24.6816 19.9744 25.0357 20.2665L25.9409 19.1687C25.0909 18.4679 23.8767 18.4238 22.9782 19.0611L23.8013 20.2216ZM25.0358 20.2665L27.7146 22.4748L28.6196 21.377L25.9408 19.1687L25.0358 20.2665Z" fill="#F99D27" fill-opacity="0.3"/>
</svg>
