<svg width="36" height="36" viewBox="0 0 36 36" fill="none" xmlns="http://www.w3.org/2000/svg">
<path d="M24.6875 17.4062C24.0859 17.4062 23.6562 17.8789 23.6562 18.4375C23.6562 19.0391 24.0859 19.4688 24.6875 19.4688C25.2461 19.4688 25.7188 19.0391 25.7188 18.4375C25.7188 17.8789 25.2461 17.4062 24.6875 17.4062ZM29.5 16.375H28.8984C28.4258 15.3008 27.6523 14.3984 26.75 13.668V10.875L26.0195 10.918C24 10.918 22.4102 12.0781 22.1523 12.25H15.707C13.9023 12.25 12.1406 12.9805 10.8945 14.1836C9.90625 15.1289 9.21875 16.375 8.96094 17.75H8.48828C7.88672 17.75 7.37109 17.1914 7.5 16.5469C7.58594 16.1602 7.84375 15.8164 8.31641 15.7305C8.61719 15.6875 8.83203 15.3867 8.83203 15.0859C8.83203 14.6133 8.44531 14.3125 8.01562 14.3984C7.02734 14.6133 6.25391 15.3867 6.125 16.418C5.95312 17.8789 7.07031 19.125 8.48828 19.125H8.83203C8.83203 21.4023 9.94922 23.3789 11.582 24.625V26.6875C11.582 27.8477 12.5273 28.75 13.6445 28.75H15.707C16.8242 28.75 17.7266 27.8477 17.7266 26.7305V26H20.4766V26.6875C20.5195 27.8477 21.4648 28.75 22.582 28.75H24.6445C25.7617 28.75 26.707 27.8477 26.707 26.7305V24.668C27.1797 24.2812 27.6523 23.8086 28.0391 23.293H29.457C30.1875 23.293 30.832 22.6914 30.832 21.918V17.75C30.875 17.0195 30.2305 16.375 29.5 16.375ZM29.457 21.875H27.3516C26.6211 22.8633 26.6211 22.9492 25.332 23.9375V26.6875C25.332 27.0742 24.9883 27.375 24.6445 27.375H22.582C22.1953 27.375 21.8945 27.0742 21.8945 26.6875V24.625H16.3945V26.6875C16.3945 27.0742 16.0508 27.375 15.707 27.375H13.6445C13.2578 27.375 12.957 27.0742 12.957 26.6875V23.9375C10.207 21.832 10.207 19.8984 10.207 19.125C10.207 16.1172 12.6992 13.625 15.707 13.625H22.625C23.3555 13.0664 24.0859 12.5078 25.332 12.3359V14.3555C27.0508 15.6445 27.2227 16.0312 27.9961 17.75H29.457V21.875ZM13.5586 11.5625C13.6016 11.5625 13.6445 11.5625 13.6875 11.5625C14.0312 11.5625 14.332 11.3477 14.375 11.0039C14.6758 9.32812 16.1367 8.125 17.8984 8.125C19.4023 8.125 20.7344 9.07031 21.25 10.4453C21.3359 10.7891 21.7656 11.0039 22.1094 10.875C22.4961 10.7461 22.7109 10.3594 22.582 10.0156C21.8945 8.08203 20.0039 6.75 17.8984 6.75C15.4492 6.75 13.3867 8.46875 13 10.7891C12.9141 11.1758 13.1719 11.5195 13.5586 11.5625Z" fill="#919199"/>
</svg>
