<svg width="20" height="15" viewBox="0 0 20 15" fill="none" xmlns="http://www.w3.org/2000/svg">
<path fill-rule="evenodd" clip-rule="evenodd" d="M10.5959 10.9007C9.54691 10.3762 7.23909 9.5969 7.23909 9.5969V8.83262L7.29903 8.78767C7.74861 8.45798 8.04833 7.94845 8.13824 7.37899L8.15323 7.30406H8.21317C8.57283 7.30406 8.87255 7.07927 9.00742 6.77956C9.08235 6.64468 9.12731 6.49482 9.12731 6.32998C9.12731 6.22508 9.11232 6.12018 9.06737 6.01527C9.05238 5.91037 8.97745 5.80547 8.90252 5.74553L8.69272 5.61066L8.75266 5.38587C9.1423 3.70745 7.83852 2.19387 6.08517 2.14891C6.04022 2.14891 5.99526 2.14891 5.96529 2.14891C5.92033 2.14891 5.87537 2.14891 5.8454 2.14891C4.07706 2.17888 2.77329 3.69246 3.16292 5.37088L3.22287 5.59567L3.01306 5.73054C2.92315 5.79049 2.86321 5.89539 2.84822 6.00029C2.80326 6.10519 2.78828 6.21009 2.78828 6.31499C2.78828 6.47984 2.83323 6.6297 2.90816 6.76457C3.02805 7.07927 3.34275 7.28908 3.70242 7.28908H3.76236L3.77735 7.364C3.86726 7.91848 4.16698 8.428 4.61656 8.77268L4.6765 8.81764V9.58192C4.6765 9.58192 2.36867 10.3612 1.31966 10.8857C0.959997 11.0655 0.735208 11.3652 0.675265 11.7099C0.495434 12.7589 0.465462 14.5422 0.465462 14.5422H5.93531H11.4052C11.4052 14.5422 11.3752 12.7739 11.1954 11.7099C11.1504 11.3652 10.9256 11.0655 10.5959 10.9007Z" stroke="white" stroke-width="0.89964"/>
<path fill-rule="evenodd" clip-rule="evenodd" d="M16.1546 6.24084H15.8361C15.7928 6.02799 15.6968 5.83573 15.5691 5.66865H16.1546C16.3141 5.66865 16.4436 5.54048 16.4436 5.38256C16.4436 5.22463 16.3141 5.09646 16.1546 5.09646H14.4206H13.2646C13.105 5.09646 12.9756 5.22463 12.9756 5.38256C12.9756 5.54048 13.105 5.66865 13.2646 5.66865H14.4206C14.7969 5.66865 15.1148 5.9084 15.2344 6.24084H13.2646C13.105 6.24084 12.9756 6.36901 12.9756 6.52694C12.9756 6.68486 13.105 6.81303 13.2646 6.81303H15.2344C15.1148 7.14547 14.7969 7.38522 14.4206 7.38522H13.2646C13.227 7.38522 13.1894 7.39266 13.1542 7.40696C13.0837 7.43614 13.027 7.49165 12.9975 7.56203C12.9681 7.63183 12.9681 7.71079 12.9975 7.7806C13.012 7.81608 13.0334 7.84755 13.0605 7.87387L15.372 10.1621C15.4286 10.2181 15.5026 10.2462 15.5766 10.2462C15.6506 10.2462 15.7246 10.2181 15.7812 10.1626C15.8939 10.051 15.8939 9.86966 15.7812 9.75809L13.9622 7.95741H14.4206C15.1188 7.95741 15.702 7.46533 15.8361 6.81303H16.1546C16.3141 6.81303 16.4436 6.68486 16.4436 6.52694C16.4436 6.36901 16.3141 6.24084 16.1546 6.24084Z" fill="white" stroke="white" stroke-width="0.2"/>
<path fill-rule="evenodd" clip-rule="evenodd" d="M17.49 3.71562L16.5217 3.01481L17.1303 0.528914C17.158 0.396685 17.1303 0.264457 17.0473 0.158674C16.9643 0.0528914 16.8398 0 16.7015 0H11.9706C11.8322 0 11.7077 0.0661143 11.6247 0.158674C11.5417 0.264457 11.5141 0.396685 11.5417 0.528914L12.1504 3.01481L11.1821 3.71562C10.9331 3.90074 10.6979 4.09908 10.5043 4.31065C10.6703 4.61477 10.7809 4.94535 10.8363 5.28914C11.0853 4.95857 11.3896 4.65444 11.7354 4.40321L12.5377 3.8214C12.5931 3.84785 12.6622 3.86107 12.7314 3.86107H13.6444C13.8934 3.86107 14.087 3.67595 14.087 3.43794C14.087 3.19993 13.8934 3.01481 13.6444 3.01481H13.0772L12.5516 0.872708H16.1482L15.6225 3.01481H15.2214C14.9724 3.01481 14.7787 3.21315 14.7787 3.43794C14.7787 3.67595 14.9862 3.86107 15.2214 3.86107H15.9822C16.0514 3.86107 16.1205 3.84785 16.1758 3.8214L16.9782 4.40321C18.1125 5.22303 18.7488 6.51887 18.6935 7.88082C18.6381 9.22955 17.9327 10.4064 16.7568 11.1204C16.079 11.5303 15.332 11.7419 14.502 11.7683C14.4052 11.7683 14.3222 11.7683 14.2254 11.7683C13.8242 11.7551 13.4369 11.7022 13.0772 11.5964C13.0911 11.6361 13.0911 11.6758 13.1049 11.7022C13.1464 11.9402 13.1879 12.2179 13.2156 12.5088C13.5476 12.5749 13.8795 12.6146 14.2115 12.6278C14.2669 12.6278 14.3222 12.6278 14.3775 12.6278C14.4329 12.6278 14.4882 12.6278 14.5435 12.6278C15.5119 12.6014 16.4525 12.3369 17.2548 11.8477C18.6796 10.9882 19.5373 9.5469 19.6065 7.92049C19.6341 6.26763 18.8595 4.69411 17.49 3.71562Z" fill="white"/>
</svg>
