<svg width="15" height="16" viewBox="0 0 15 16" fill="none" xmlns="http://www.w3.org/2000/svg">
<path fill-rule="evenodd" clip-rule="evenodd" d="M8.906 11.7715L13.0955 10.1186C13.0955 10.1186 13.8876 9.8606 14.2519 10.5422C14.6161 11.2237 13.9562 11.7715 13.9562 11.7715L7.56057 14.6848C6.8028 15.03 5.93644 15.0484 5.1647 14.7357L1.31826 13.1773H0.638181V8.53623H3.55475L6.01727 9.84807H8.46386C8.46386 9.84807 9.20615 9.97005 9.38462 10.5422C9.56308 11.1143 8.906 11.7715 8.906 11.7715Z" fill="#B1B1B1" stroke="#B1B1B1" stroke-width="1.25" stroke-linejoin="round"/>
<path fill-rule="evenodd" clip-rule="evenodd" d="M3.17631 2.60185C3.17631 2.60185 4.13521 3.57421 7.47547 3.57421C10.8157 3.57421 11.7746 2.60185 11.7746 2.60185C11.7746 2.60185 12.3788 0.638181 7.37838 0.638181C2.37793 0.638181 3.17631 2.60185 3.17631 2.60185Z" fill="#B1B1B1" stroke="#B1B1B1" stroke-width="1.25" stroke-linejoin="round"/>
<path d="M3.06639 5.40326C3.06639 5.40326 4.02529 6.37562 7.36555 6.37562C10.7058 6.37562 11.6647 5.40326 11.6647 5.40326" stroke="#B1B1B1" stroke-width="1.2375" stroke-linecap="round"/>
<path d="M5.76569 11.8302H8.58077L9.37424 11.5027" stroke="#B1B1B1" stroke-width="1.2375" stroke-linecap="round"/>
</svg>
