<svg width="24" height="27" viewBox="0 0 24 27" fill="none" xmlns="http://www.w3.org/2000/svg">
<path fill-rule="evenodd" clip-rule="evenodd" d="M0.723954 22.9727C0.723954 22.9727 0.617013 19.3517 1.45928 18.1376C2.30154 16.9234 6.67017 15.3027 6.67017 15.3027L23.2804 15.3027V22.9727H0.723954Z" stroke="#B02A30" stroke-width="1.4" stroke-linecap="square"/>
<path d="M4.79771 18.389C4.79771 18.389 3.6725 18.8179 3.28724 19.5759C2.90197 20.334 3.05774 21.1595 3.05774 21.1595" stroke="#F99D27" stroke-opacity="0.3" stroke-width="1.4" stroke-linecap="round" stroke-linejoin="round"/>
<path fill-rule="evenodd" clip-rule="evenodd" d="M12.3344 15.3027C12.3344 15.3027 15.3631 12.8901 17.3204 12.2191C19.2777 11.5481 23.2804 11.5503 23.2804 11.5503V15.3027H12.3344Z" stroke="#B02A30" stroke-width="1.4" stroke-linecap="square"/>
<path d="M13.1438 5.12515C13.1438 5.12515 12.9769 8.83033 10.882 10.5478C8.7872 12.2652 5.80367 12.3194 5.80367 12.3194" stroke="#B02A30" stroke-width="1.4" stroke-linecap="round"/>
<path d="M9.4737 2.98347C9.4737 2.98347 9.04547 5.27559 7.55882 6.73473C6.07217 8.19387 3.62667 8.72231 3.62667 8.72231" stroke="#B02A30" stroke-width="1.4" stroke-linecap="round"/>
<path d="M5.80361 0.71978C5.80361 0.71978 5.36012 2.59907 4.27122 3.67031C3.18233 4.74156 1.44966 5.00318 1.44966 5.00318" stroke="#B02A30" stroke-width="1.4" stroke-linecap="round"/>
<ellipse cx="8.70618" cy="23.2868" rx="2.90263" ry="2.8556" fill="white" stroke="#B02A30" stroke-width="1.4"/>
</svg>
