<svg width="24" height="22" viewBox="0 0 24 22" fill="none" xmlns="http://www.w3.org/2000/svg">
<path d="M22.8594 12.375L14.3516 12.418C13.707 12.418 13.4062 13.1484 13.8359 13.5781L19.4648 19.207C19.6797 19.3789 20.0664 19.5078 20.4102 19.207C22.0859 17.6602 23.2031 15.5547 23.5469 13.1484C23.6328 12.7617 23.2891 12.375 22.8594 12.375ZM19.9375 17.7461L15.9844 13.75H22.043C21.6992 15.2539 20.9688 16.5859 19.9375 17.7461ZM9.83984 12.375V2.19141C9.83984 1.80469 9.49609 1.50391 9.15234 1.50391C9.10938 1.50391 9.06641 1.50391 9.06641 1.50391C3.95312 2.23438 0 6.66016 0.257812 12.0742C0.386719 17.5312 5.07031 22 10.5273 22C10.5703 22 10.5703 22 10.6133 22C12.8047 22 14.7812 21.3125 16.457 20.1094C16.8008 19.8945 16.8008 19.3789 16.5 19.0781L9.83984 12.375ZM10.6133 20.625C5.62891 20.625 1.71875 16.543 1.58984 12.0312C1.41797 7.73438 4.33984 3.99609 8.46484 3.00781V12.375C8.46484 12.7617 8.59375 13.1055 8.85156 13.3633L14.9531 19.4648C13.6211 20.2383 12.1602 20.625 10.6133 20.625ZM22.1719 9.625C21.7852 4.46875 17.7031 0.429688 12.5469 0C12.1172 0 11.8594 0.386719 11.8594 0.730469V9.625C11.8594 10.0117 12.1602 10.3125 12.5469 10.3125H21.4414C21.8711 10.3125 22.2148 10.0117 22.1719 9.625ZM13.2344 8.9375V1.46094C17.1016 2.0625 20.1523 5.11328 20.7539 8.9375H13.2344Z" fill="#FF9500"/>
</svg>
