<svg width="20" height="22" viewBox="0 0 20 22" fill="none" xmlns="http://www.w3.org/2000/svg">
<path d="M16.5 2.75H15.125V0.6875C15.125 0.34375 14.7812 0 14.4375 0C14.0508 0 13.75 0.34375 13.75 0.6875V2.75H5.5V0.6875C5.5 0.34375 5.15625 0 4.8125 0C4.42578 0 4.125 0.34375 4.125 0.6875V2.75H2.75C1.20312 2.75 0 3.99609 0 5.5V19.25C0 20.7969 1.20312 22 2.75 22H16.5C18.0039 22 19.25 20.7969 19.25 19.25V5.5C19.25 3.99609 18.0039 2.75 16.5 2.75ZM2.75 4.125H16.5C17.2305 4.125 17.875 4.76953 17.875 5.5V6.875H1.375V5.5C1.375 4.76953 1.97656 4.125 2.75 4.125ZM16.5 20.625H2.75C1.97656 20.625 1.375 20.0234 1.375 19.25V8.25H17.875V19.25C17.875 20.0234 17.2305 20.625 16.5 20.625Z" fill="#007BFF"/>
</svg>
