<svg width="16" height="16" viewBox="0 0 16 16" fill="none" xmlns="http://www.w3.org/2000/svg">
<path d="M8 0C3.5625 0 0 3.59375 0 8C0 12.4375 3.5625 16 8 16C12.4062 16 16 12.4375 16 8C16 3.59375 12.4062 0 8 0ZM8 15C4.125 15 1 11.875 1 8C1 4.15625 4.125 1 8 1C11.8438 1 15 4.15625 15 8C15 11.875 11.8438 15 8 15ZM8 9.5C8.25 9.5 8.5 9.28125 8.5 9V4C8.5 3.75 8.25 3.5 8 3.5C7.71875 3.5 7.5 3.75 7.5 4V9C7.5 9.28125 7.71875 9.5 8 9.5ZM8 10.75C7.5625 10.75 7.25 11.0938 7.25 11.5C7.25 11.9375 7.5625 12.25 8 12.25C8.40625 12.25 8.75 11.9375 8.75 11.5C8.75 11.0938 8.40625 10.75 8 10.75Z" fill="#FF382E"/>
</svg>
