<svg width="14" height="14" viewBox="0 0 14 14" fill="none" xmlns="http://www.w3.org/2000/svg">
<mask id="path-1-inside-1_1233_5489" fill="white">
<path fill-rule="evenodd" clip-rule="evenodd" d="M5.82943 14C6.58286 14 7.19829 13.3709 7.19829 12.5983H4.45629C4.45629 13.3709 5.076 14 5.82943 14ZM11.2857 10.1183C10.6324 9.07973 10.2857 7.87769 10.2857 6.65069V5.95087C10.2857 3.83646 8.91965 2.12132 7.01118 1.58239C6.96022 1.568 6.85714 1.54175 6.85714 1.54175C6.85714 1.54175 6.34329 0 5.82943 0C5.31557 0 4.80171 1.54175 4.80171 1.54175C4.80171 1.54175 4.69267 1.56957 4.63878 1.5849C2.73419 2.12661 1.37314 3.83972 1.37314 5.95087V6.65069C1.37314 7.87769 1.02649 9.07973 0.373137 10.1183C0.129346 10.5058 0 10.9544 0 11.4122L0 11.7568C0 11.8368 0.0649138 11.9017 0.144989 11.9017H11.5139C11.5939 11.9017 11.6589 11.8368 11.6589 11.7568V11.4122C11.6589 10.9544 11.5295 10.5058 11.2857 10.1183Z"/>
</mask>
<path d="M7.19829 12.5983H8.19829V11.5983H7.19829V12.5983ZM4.45629 12.5983V11.5983H3.45629V12.5983H4.45629ZM7.01118 1.58239L7.28294 0.620029L7.01118 1.58239ZM6.85714 1.54175L5.90845 1.85794L6.08112 2.37603L6.61033 2.51081L6.85714 1.54175ZM4.80171 1.54175L5.04891 2.51071L5.57782 2.37578L5.75041 1.85794L4.80171 1.54175ZM4.63878 1.5849L4.36521 0.623044L4.63878 1.5849ZM0 11.4122H1H0ZM0 11.7568H-1H0ZM5.82943 15C7.15689 15 8.19829 13.9012 8.19829 12.5983H6.19829C6.19829 12.8406 6.00882 13 5.82943 13V15ZM7.19829 11.5983H4.45629V13.5983H7.19829V11.5983ZM3.45629 12.5983C3.45629 13.9053 4.50598 15 5.82943 15V13C5.64602 13 5.45629 12.8365 5.45629 12.5983H3.45629ZM11.2857 6.65069V5.95087H9.28571V6.65069H11.2857ZM11.2857 5.95087C11.2857 3.38241 9.61596 1.27884 7.28294 0.620029L6.73942 2.54476C8.22333 2.9638 9.28571 4.29052 9.28571 5.95087H11.2857ZM7.28294 0.620029C7.24635 0.609695 7.19869 0.59718 7.16685 0.588896C7.14951 0.584384 7.13397 0.58038 7.12278 0.577504C7.11716 0.576061 7.11258 0.574889 7.10935 0.574063C7.10773 0.573649 7.10645 0.573322 7.10554 0.57309C7.10508 0.572974 7.10472 0.572881 7.10445 0.572814C7.10432 0.57278 7.10421 0.572753 7.10413 0.572731C7.10409 0.572721 7.10405 0.572712 7.10403 0.572704C7.10401 0.572701 7.104 0.572698 7.10399 0.572695C7.10398 0.572693 7.10397 0.572691 7.10397 0.572691C7.10396 0.572689 7.10396 0.572687 6.85714 1.54175C6.61033 2.51081 6.61032 2.51081 6.61032 2.51081C6.61032 2.51081 6.61031 2.51081 6.61031 2.51081C6.6103 2.51081 6.6103 2.51081 6.6103 2.5108C6.61029 2.5108 6.6103 2.5108 6.6103 2.51081C6.61032 2.51081 6.61036 2.51082 6.61043 2.51084C6.61055 2.51087 6.61078 2.51093 6.61109 2.51101C6.61171 2.51117 6.6127 2.51142 6.614 2.51175C6.6166 2.51242 6.62047 2.51341 6.62531 2.51465C6.63503 2.51715 6.64845 2.5206 6.66325 2.52445C6.69569 2.53289 6.72505 2.5407 6.73942 2.54476L7.28294 0.620029ZM6.85714 1.54175C7.80584 1.22556 7.80579 1.22541 7.80574 1.22526C7.80572 1.2252 7.80567 1.22504 7.80563 1.22493C7.80555 1.22469 7.80546 1.22444 7.80537 1.22415C7.80518 1.22359 7.80496 1.22293 7.80471 1.22218C7.8042 1.22068 7.80357 1.2188 7.80281 1.21655C7.80129 1.21207 7.79926 1.20612 7.79674 1.1988C7.79171 1.18418 7.78469 1.16406 7.77581 1.1392C7.7581 1.0896 7.73278 1.02057 7.70084 0.938442C7.63784 0.776421 7.54515 0.553162 7.43043 0.323703C7.32042 0.103652 7.1677 -0.168037 6.97505 -0.399242C6.82806 -0.575649 6.43942 -1 5.82943 -1V1C5.63785 1 5.51101 0.928025 5.46638 0.898268C5.42273 0.869164 5.4151 0.852917 5.43853 0.881039C5.48676 0.938912 5.55885 1.05266 5.64153 1.21805C5.71951 1.37402 5.7874 1.5362 5.8368 1.66326C5.86107 1.72568 5.87991 1.77709 5.89231 1.8118C5.89848 1.82911 5.90301 1.8421 5.90575 1.85007C5.90712 1.85405 5.90804 1.85675 5.9085 1.8581C5.90873 1.85877 5.90884 1.8591 5.90883 1.85908C5.90883 1.85907 5.90879 1.85897 5.90873 1.85878C5.9087 1.85869 5.90866 1.85857 5.90861 1.85843C5.90859 1.85836 5.90855 1.85824 5.90854 1.85821C5.90849 1.85808 5.90845 1.85794 6.85714 1.54175ZM5.82943 -1C5.21944 -1 4.8308 -0.575649 4.68381 -0.399242C4.49116 -0.168037 4.33844 0.103652 4.22843 0.323703C4.11371 0.553162 4.02102 0.776421 3.95801 0.938442C3.92608 1.02057 3.90076 1.0896 3.88304 1.1392C3.87417 1.16406 3.86715 1.18418 3.86211 1.1988C3.8596 1.20612 3.85757 1.21207 3.85605 1.21655C3.85529 1.2188 3.85465 1.22068 3.85415 1.22218C3.8539 1.22293 3.85368 1.22359 3.85349 1.22415C3.85339 1.22444 3.85331 1.22469 3.85323 1.22493C3.85319 1.22504 3.85314 1.2252 3.85312 1.22526C3.85307 1.22541 3.85302 1.22556 4.80171 1.54175C5.75041 1.85794 5.75036 1.85808 5.75032 1.85821C5.75031 1.85824 5.75027 1.85836 5.75025 1.85843C5.7502 1.85857 5.75016 1.85869 5.75013 1.85878C5.75007 1.85897 5.75003 1.85907 5.75003 1.85908C5.75002 1.8591 5.75013 1.85877 5.75036 1.8581C5.75082 1.85675 5.75174 1.85405 5.75311 1.85007C5.75585 1.8421 5.76037 1.82911 5.76655 1.8118C5.77895 1.77709 5.79778 1.72568 5.82205 1.66326C5.87146 1.5362 5.93934 1.37402 6.01732 1.21805C6.10001 1.05266 6.1721 0.938912 6.22032 0.881039C6.24375 0.852917 6.23613 0.869164 6.19248 0.898268C6.14785 0.928025 6.02101 1 5.82943 1V-1ZM4.80171 1.54175C4.55452 0.572785 4.55451 0.572787 4.5545 0.572789C4.5545 0.57279 4.55449 0.572792 4.55448 0.572793C4.55447 0.572796 4.55446 0.5728 4.55444 0.572803C4.55441 0.572811 4.55438 0.572821 4.55433 0.572832C4.55424 0.572854 4.55413 0.572884 4.55399 0.572919C4.55371 0.572991 4.55333 0.573089 4.55285 0.573212C4.55188 0.573458 4.55053 0.573805 4.54882 0.574243C4.5454 0.575118 4.54055 0.576361 4.53461 0.577891C4.52276 0.580939 4.50633 0.585185 4.48798 0.589971C4.45431 0.598759 4.4039 0.61204 4.36521 0.623044L4.91236 2.54675C4.92755 2.54243 4.95861 2.53413 4.99293 2.52518C5.00858 2.5211 5.02278 2.51743 5.03306 2.51478C5.03818 2.51346 5.04227 2.51241 5.04503 2.51171C5.04641 2.51136 5.04745 2.51109 5.04811 2.51092C5.04844 2.51084 5.04867 2.51078 5.04881 2.51074C5.04888 2.51072 5.04892 2.51071 5.04894 2.51071C5.04895 2.51071 5.04895 2.51071 5.04895 2.51071C5.04894 2.51071 5.04894 2.51071 5.04893 2.51071C5.04893 2.51071 5.04893 2.51071 5.04892 2.51071C5.04892 2.51071 5.04891 2.51071 4.80171 1.54175ZM4.36521 0.623044C2.03672 1.28532 0.373143 3.38662 0.373143 5.95087H2.37314C2.37314 4.29283 3.43166 2.96789 4.91236 2.54675L4.36521 0.623044ZM0.373143 5.95087V6.65069H2.37314V5.95087H0.373143ZM-1 11.4122V11.7568H1V11.4122H-1ZM0.144989 12.9017H11.5139V10.9017H0.144989V12.9017ZM12.6589 11.7568V11.4122H10.6589V11.7568H12.6589ZM12.6589 11.4122C12.6589 10.7659 12.4763 10.1328 12.1322 9.58582L10.4393 10.6508C10.5827 10.8788 10.6589 11.1428 10.6589 11.4122H12.6589ZM9.28571 6.65069C9.28571 8.06611 9.68559 9.45273 10.4393 10.6508L12.1322 9.58582C11.5791 8.70673 11.2857 7.68927 11.2857 6.65069H9.28571ZM11.5139 12.9017C12.1462 12.9017 12.6589 12.3891 12.6589 11.7568H10.6589C10.6589 11.2845 11.0417 10.9017 11.5139 10.9017V12.9017ZM-0.473303 9.58582C-0.817422 10.1328 -1 10.7659 -1 11.4122H1C1 11.1428 1.07612 10.8788 1.21958 10.6508L-0.473303 9.58582ZM0.373143 6.65069C0.373143 7.68928 0.0797256 8.70673 -0.473303 9.58582L1.21958 10.6508C1.97326 9.45273 2.37314 8.06611 2.37314 6.65069H0.373143ZM-1 11.7568C-1 12.3891 -0.487371 12.9017 0.144989 12.9017V10.9017C0.617199 10.9017 1 11.2846 1 11.7568H-1Z" fill="#B02A30" mask="url(#path-1-inside-1_1233_5489)"/>
<circle cx="11" cy="11" r="3" fill="#FF692A"/>
</svg>
