<svg width="23" height="32" viewBox="0 0 23 32" fill="none" xmlns="http://www.w3.org/2000/svg">
<ellipse rx="2.00571" ry="3.01265" transform="matrix(-1.0208 0 0 1.0208 3.44311 28.2101)" fill="white" stroke="#B02A30" stroke-width="1.4" stroke-linecap="square" stroke-linejoin="round"/>
<path d="M20.4077 19.7012H3.44309L3.44309 25.1348" stroke="#B02A30" stroke-width="1.4" stroke-linecap="round" stroke-linejoin="round"/>
<path d="M20.4077 17.3155H3.44309" stroke="#B02A30" stroke-width="1.4" stroke-linecap="round" stroke-linejoin="round"/>
<path d="M3.44309 27.2344V27.2087" stroke="#F99D27" stroke-opacity="0.3" stroke-width="1.68" stroke-linecap="round" stroke-linejoin="round"/>
<path fill-rule="evenodd" clip-rule="evenodd" d="M0.714511 4.14446C0.714511 2.25019 2.25013 0.714573 4.1444 0.714573H22.1513V14.7652C22.1513 14.7652 10.2739 14.7652 5.49419 14.7652C0.714511 14.7652 0.714511 17.8735 0.714511 17.8735L0.714511 4.14446Z" stroke="#B02A30" stroke-width="1.4" stroke-linecap="square" stroke-linejoin="round"/>
<path d="M0.714511 17.864C0.714511 17.864 0.714511 18.8658 0.714511 19.3697C0.714511 19.8736 1.25258 22.1514 5.77391 22.1514C10.2952 22.1514 22.1513 22.1514 22.1513 22.1514" stroke="#B02A30" stroke-width="1.4" stroke-linecap="round" stroke-linejoin="round"/>
<path d="M9.37699 4.06567H14.3233" stroke="#F99D27" stroke-opacity="0.3" stroke-width="1.4" stroke-linecap="round"/>
<path d="M9.37699 6.27468H14.3233" stroke="#F99D27" stroke-opacity="0.3" stroke-width="1.4" stroke-linecap="round"/>
<path d="M9.53587 4.05872C9.53587 4.05872 13.2523 4.23044 13.2523 6.26869C13.2523 8.30693 9.53587 8.57197 9.53587 8.57197L14.0656 11.341" stroke="#F99D27" stroke-opacity="0.3" stroke-width="1.4" stroke-linecap="round" stroke-linejoin="round"/>
</svg>
