<svg width="40" height="40" viewBox="0 0 40 40" fill="none" xmlns="http://www.w3.org/2000/svg">
<rect width="40" height="40" fill="white"/>
<path fill-rule="evenodd" clip-rule="evenodd" d="M8 14.95C8 13.2931 9.34315 11.95 11 11.95H29.65C31.3069 11.95 32.65 13.2931 32.65 14.95V30.2C32.65 31.8569 31.3069 33.2 29.65 33.2H11C9.34314 33.2 8 31.8569 8 30.2V14.95Z" stroke="#B02A30" stroke-width="1.4"/>
<path d="M11.4 9.4C11.4 7.52223 12.9223 6 14.8 6C16.6778 6 18.2 7.52223 18.2 9.4V26.4C18.2 28.2778 16.6778 29.8 14.8 29.8C12.9223 29.8 11.4 28.2778 11.4 26.4L11.4 9.4Z" fill="white" stroke="#B02A30" stroke-width="1.4"/>
<path d="M21.175 21.025C20.7884 21.025 20.475 21.3384 20.475 21.725C20.475 22.1116 20.7884 22.425 21.175 22.425V21.025ZM22.025 22.425C22.4116 22.425 22.725 22.1116 22.725 21.725C22.725 21.3384 22.4116 21.025 22.025 21.025V22.425ZM25 21.025C24.6134 21.025 24.3 21.3384 24.3 21.725C24.3 22.1116 24.6134 22.425 25 22.425V21.025ZM25.85 22.425C26.2366 22.425 26.55 22.1116 26.55 21.725C26.55 21.3384 26.2366 21.025 25.85 21.025V22.425ZM29.25 21.025C28.8634 21.025 28.55 21.3384 28.55 21.725C28.55 22.1116 28.8634 22.425 29.25 22.425V21.025ZM30.1 22.425C30.4866 22.425 30.8 22.1116 30.8 21.725C30.8 21.3384 30.4866 21.025 30.1 21.025V22.425ZM21.175 24.425C20.7884 24.425 20.475 24.7384 20.475 25.125C20.475 25.5116 20.7884 25.825 21.175 25.825V24.425ZM22.025 25.825C22.4116 25.825 22.725 25.5116 22.725 25.125C22.725 24.7384 22.4116 24.425 22.025 24.425V25.825ZM25 24.425C24.6134 24.425 24.3 24.7384 24.3 25.125C24.3 25.5116 24.6134 25.825 25 25.825V24.425ZM25.85 25.825C26.2366 25.825 26.55 25.5116 26.55 25.125C26.55 24.7384 26.2366 24.425 25.85 24.425V25.825ZM29.25 24.425C28.8634 24.425 28.55 24.7384 28.55 25.125C28.55 25.5116 28.8634 25.825 29.25 25.825V24.425ZM30.1 25.825C30.4866 25.825 30.8 25.5116 30.8 25.125C30.8 24.7384 30.4866 24.425 30.1 24.425V25.825ZM21.175 27.825C20.7884 27.825 20.475 28.1384 20.475 28.525C20.475 28.9116 20.7884 29.225 21.175 29.225V27.825ZM22.025 29.225C22.4116 29.225 22.725 28.9116 22.725 28.525C22.725 28.1384 22.4116 27.825 22.025 27.825V29.225ZM25 27.825C24.6134 27.825 24.3 28.1384 24.3 28.525C24.3 28.9116 24.6134 29.225 25 29.225V27.825ZM25.85 29.225C26.2366 29.225 26.55 28.9116 26.55 28.525C26.55 28.1384 26.2366 27.825 25.85 27.825V29.225ZM29.25 27.825C28.8634 27.825 28.55 28.1384 28.55 28.525C28.55 28.9116 28.8634 29.225 29.25 29.225V27.825ZM30.1 29.225C30.4866 29.225 30.8 28.9116 30.8 28.525C30.8 28.1384 30.4866 27.825 30.1 27.825V29.225ZM21.175 22.425H22.025V21.025H21.175V22.425ZM25 22.425H25.85V21.025H25V22.425ZM29.25 22.425H30.1V21.025H29.25V22.425ZM21.175 25.825H22.025V24.425H21.175V25.825ZM25 25.825H25.85V24.425H25V25.825ZM29.25 25.825H30.1V24.425H29.25V25.825ZM21.175 29.225H22.025V27.825H21.175V29.225ZM25 29.225H25.85V27.825H25V29.225ZM29.25 29.225H30.1V27.825H29.25V29.225Z" fill="#F99D27" fill-opacity="0.3"/>
</svg>
