<svg width="22" height="22" viewBox="0 0 22 22" fill="none" xmlns="http://www.w3.org/2000/svg">
<path d="M11 0C4.89844 0 0 4.94141 0 11C0 17.1016 4.89844 22 11 22C17.0586 22 22 17.1016 22 11C22 4.94141 17.0586 0 11 0ZM11 20.625C5.67188 20.625 1.375 16.3281 1.375 11C1.375 5.71484 5.67188 1.375 11 1.375C16.2852 1.375 20.625 5.71484 20.625 11C20.625 16.3281 16.2852 20.625 11 20.625ZM10.3125 14.7812C9.71094 14.7812 9.28125 15.2539 9.28125 15.8125C9.28125 16.4141 9.71094 16.8438 10.3125 16.8438C10.8711 16.8438 11.3438 16.4141 11.3438 15.8125C11.3438 15.2539 10.8711 14.7812 10.3125 14.7812ZM12.2461 5.5H9.71094C8.12109 5.5 6.875 6.78906 6.875 8.37891V8.76562C6.875 9.15234 7.17578 9.45312 7.5625 9.45312C7.90625 9.45312 8.25 9.15234 8.25 8.76562V8.37891C8.25 7.5625 8.89453 6.875 9.71094 6.875H12.2461C13.0625 6.875 13.75 7.5625 13.75 8.37891C13.75 8.89453 13.4492 9.41016 12.9766 9.66797L10.3984 10.957C9.92578 11.2148 9.625 11.7305 9.625 12.2891V13.0625C9.625 13.4492 9.92578 13.75 10.3125 13.75C10.6562 13.75 11 13.4492 11 13.0625V12.2891C11 12.2461 11 12.2031 11.043 12.1602L13.6211 10.8711C14.5234 10.3555 15.125 9.41016 15.125 8.37891C15.125 6.78906 13.8359 5.5 12.2461 5.5Z" fill="#919199"/>
</svg>
