<svg width="22" height="22" viewBox="0 0 22 22" fill="none" xmlns="http://www.w3.org/2000/svg">
<path d="M21 11L18 8V4H14L11 1L8 4H4V8L1 11L4 14V18H8L11 21L14 18H18V14L21 11Z" stroke="#B02A30" stroke-width="2" stroke-linecap="round" stroke-linejoin="round"/>
<path d="M14 8L8 14" stroke="#B02A30" stroke-width="2" stroke-linecap="round" stroke-linejoin="round"/>
<path fill-rule="evenodd" clip-rule="evenodd" d="M8.5 10C7.67157 10 7 9.32843 7 8.5C7 7.67157 7.67157 7 8.5 7C9.32843 7 10 7.67157 10 8.5C10 9.32843 9.32843 10 8.5 10Z" fill="#F99D27" fill-opacity="0.3"/>
<path fill-rule="evenodd" clip-rule="evenodd" d="M13.5 15C12.6716 15 12 14.3284 12 13.5C12 12.6716 12.6716 12 13.5 12C14.3284 12 15 12.6716 15 13.5C15 14.3284 14.3284 15 13.5 15Z" fill="#F99D27" fill-opacity="0.3"/>
</svg>
