<svg width="285" height="94" viewBox="0 0 285 94" fill="none" xmlns="http://www.w3.org/2000/svg">
<path d="M0.202348 92.8501L3.36497 92.19C6.5276 91.5299 12.8529 90.2097 18.6454 84.1495C24.438 78.0894 29.6978 67.2892 35.9701 65.4979C42.2424 63.7066 49.5272 70.9241 55.65 67.8027C61.7728 64.6812 66.7337 51.2208 72.3955 43.9972C78.0573 36.7735 84.42 35.7866 90.8213 35.1431C97.2226 34.4996 103.662 34.1996 110.505 37.4853C117.348 40.7709 124.594 47.6424 131.122 48.1255C137.65 48.6087 143.46 42.7036 149.244 36.5679C155.028 30.4322 160.786 24.0659 166.884 20.7213C172.982 17.3768 179.419 17.0541 185.458 13.1867C191.497 9.31921 197.138 1.90697 203.518 1.08012C209.899 0.253263 217.02 6.01179 224.389 13.9828C231.759 21.9537 239.377 32.1371 245.815 31.8227C252.253 31.5083 257.512 20.696 263.735 18.4711C269.959 16.2461 277.148 22.6085 280.742 25.7897L284.336 28.9709" stroke="#FFBF66" stroke-width="2"/>
</svg>
