<svg width="8" height="8" viewBox="0 0 8 8" fill="none" xmlns="http://www.w3.org/2000/svg">
<path fill-rule="evenodd" clip-rule="evenodd" d="M5.05873 0.571987L1.86951 1.41407H1.4329L4.28793 0.0453593C4.50983 -0.0615304 4.77934 0.0271099 4.88984 0.241758L5.05873 0.571987ZM5.93015 0.611962C5.96968 0.601534 6.00922 0.596319 6.04874 0.596319C6.24638 0.596319 6.42785 0.723197 6.48175 0.916989L6.6219 1.41407H5.48995H2.89276L5.18092 0.810099L5.93015 0.611962ZM7.08995 1.71823H6.98753H6.84829H6.70904H5.64627H1.74104H1.22897H0.797754H0.717799H0.450084C0.308141 1.71823 0.181471 1.78167 0.0988209 1.8816C0.0610893 1.92766 0.0323414 1.98067 0.0161707 2.0389C0.0062886 2.0754 0 2.11363 0 2.15274V2.20488V2.70022V6.99406C0 7.23392 0.201235 7.42857 0.449186 7.42857H7.08905C7.33701 7.42857 7.53824 7.23392 7.53824 6.99406V5.78177H4.87277C4.45143 5.78177 4.10915 5.45068 4.10915 5.04311V4.64509V4.5104V4.3757V4.07675C4.10915 3.87688 4.19179 3.69526 4.32566 3.5623C4.44424 3.4441 4.60326 3.36415 4.78113 3.34417C4.81078 3.3407 4.84132 3.33895 4.87187 3.33895H7.16451H7.30376H7.44301H7.53824V2.15274C7.53914 1.91289 7.3379 1.71823 7.08995 1.71823ZM7.85357 3.75435C7.80865 3.71437 7.75564 3.68396 7.69635 3.66397C7.65052 3.6492 7.60202 3.64051 7.55081 3.64051H7.53913H7.53015H7.3909H6.88871H4.87277C4.62481 3.64051 4.42358 3.83517 4.42358 4.07502V4.2914V4.4261V4.5608V5.04224C4.42358 5.28209 4.62481 5.47675 4.87277 5.47675H7.53913H7.55081C7.60202 5.47675 7.65053 5.46806 7.69635 5.45328C7.75564 5.43417 7.80865 5.40288 7.85357 5.36291C7.9434 5.28382 8 5.16911 8 5.04225V4.07502C8 3.94814 7.9434 3.83342 7.85357 3.75435ZM5.81067 4.64509C5.81067 4.76502 5.71005 4.86235 5.58607 4.86235H5.43695C5.31297 4.86235 5.21235 4.76502 5.21235 4.64509V4.50084C5.21235 4.43131 5.24559 4.36961 5.2986 4.3305C5.33723 4.30182 5.38485 4.28358 5.43695 4.28358H5.47468H5.58607C5.71005 4.28358 5.81067 4.3809 5.81067 4.50084V4.64509Z" fill="#E7F9FA"/>
</svg>
